<?xml version="1.0" encoding="utf-8"?>
<!-- Generator: Adobe Illustrator 25.1.0, SVG Export Plug-In . SVG Version: 6.00 Build 0)  -->
<svg version="1.1" id="Layer_1" xmlns="http://www.w3.org/2000/svg" xmlns:xlink="http://www.w3.org/1999/xlink" x="0px" y="0px"
	 viewBox="0 0 71.9 92.8" style="enable-background:new 0 0 71.9 92.8;" xml:space="preserve">
<style type="text/css">
	.st0{fill:#F4E2D6;}
	.st1{opacity:0.4;fill:#FFFFFF;}
	.st2{opacity:0.2;fill:#1A1A1A;}
	.st3{opacity:0.4;fill:#CE4427;}
	.st4{opacity:0.8;}
	.st5{opacity:0.3;fill:#010101;}
</style>
<path class="st0" d="M36,0C16.1,0,0,25.4,0,51c0,25.6,16.1,41.8,36,41.8s36-16.2,36-41.8C71.9,25.4,55.8,0,36,0z"/>
<path class="st1" d="M7.7,42.2c0-9.5,1.4-18.9,3.8-27.7C4.4,24.2,0,37.6,0,51c0,21.2,11,35.9,26,40.3C14.9,80.9,7.7,63.9,7.7,42.2z"
	/>
<path class="st2" d="M64.2,42.2c0-9.5-1.4-18.9-3.8-27.7c7.1,9.7,11.5,23.1,11.5,36.5c0,21.2-11,35.9-26,40.3
	C57.1,80.9,64.2,63.9,64.2,42.2z"/>
<g>
	<g>
		<path class="st3" d="M64.9,27.5c0.2,0.7,0.4,1.3,0.5,2c-0.1-0.7-0.2-1.6-0.3-2.2"/>
	</g>
</g>
<g class="st4">
	<path class="st5" d="M51.1,71.3c-0.5,0.4-0.5,1.3-0.1,1.9c0.4,0.6,1.1,0.7,1.6,0.3c0.5-0.4,0.6-1.1,0.3-1.7
		C52.4,71.1,51.6,70.8,51.1,71.3z"/>
	<path class="st5" d="M47.4,75.8c-0.2,0.1-0.2,0.5-0.1,0.7c0.1,0.2,0.4,0.3,0.6,0.1c0.2-0.1,0.3-0.4,0.1-0.6
		C47.9,75.8,47.6,75.7,47.4,75.8z"/>
	<path class="st5" d="M54.3,68.4c-0.2-0.3-0.6-0.4-0.9-0.2c-0.2,0.2-0.2,0.7,0,1c0.2,0.3,0.5,0.3,0.8,0.1
		C54.5,69.1,54.5,68.7,54.3,68.4z"/>
	<path class="st5" d="M50.8,68.6c-0.3-0.4-0.8-0.5-1.1-0.2c-0.3,0.3-0.3,0.8,0,1.2c0.3,0.3,0.7,0.4,1,0.1C51,69.4,51,68.9,50.8,68.6
		z"/>
	<path class="st5" d="M46.9,68c0.2-0.1,0.2-0.4,0-0.5c-0.1-0.2-0.4-0.3-0.6-0.1c-0.2,0.1-0.1,0.4,0,0.6C46.6,68.1,46.8,68.1,46.9,68
		z"/>
	<path class="st5" d="M46.8,66.4c0.1-0.1,0.1-0.2,0-0.3c-0.1-0.1-0.3-0.2-0.4-0.1c-0.1,0.1-0.1,0.3,0,0.4
		C46.6,66.4,46.7,66.4,46.8,66.4z"/>
	<path class="st5" d="M48.2,71c-0.3-0.4-0.9-0.6-1.3-0.3c-0.4,0.3-0.4,0.9-0.1,1.3c0.3,0.4,0.8,0.5,1.2,0.2
		C48.4,71.9,48.5,71.4,48.2,71z"/>
</g>
</svg>
