<?xml version="1.0" encoding="utf-8"?>
<!-- Generator: Adobe Illustrator 25.1.0, SVG Export Plug-In . SVG Version: 6.00 Build 0)  -->
<svg version="1.1" id="Layer_1" xmlns="http://www.w3.org/2000/svg" xmlns:xlink="http://www.w3.org/1999/xlink" x="0px" y="0px"
	 viewBox="0 0 599.1 652" style="enable-background:new 0 0 599.1 652;" xml:space="preserve">
<style type="text/css">
	.st0{fill:#ED2224;}
	.st1{fill:#6B504E;}
	.st2{opacity:0.2;fill:#FEE6D4;enable-background:new    ;}
	.st3{fill:#010101;}
	.st4{opacity:0.3;fill:#010101;enable-background:new    ;}
	.st5{fill:#FFFFFF;}
	.st6{opacity:0.2;fill:#C9C9C9;enable-background:new    ;}
	.st7{fill:#FFFCFA;}
	.st8{opacity:0.2;fill:#CFCECC;enable-background:new    ;}
	.st9{opacity:0.8;}
	.st10{opacity:0.4;}
	.st11{opacity:0.2;fill:#5C0A0C;enable-background:new    ;}
	.st12{opacity:0.1;fill:#010101;enable-background:new    ;}
	.st13{fill:#0A0A0A;}
	.st14{fill:#1E1E1E;}
	.st15{fill:#565656;}
</style>
<path class="st0" d="M441.3,52.5c-0.4,0-1.2,0-1.5-0.4c10-6.9,20.7-12.7,32.6-17.3c10-3.5,20.3-6.1,31.1-7.7
	c-28.4-6.1-54.5-6.5-76,1.5c-10.4,3.8-19.2,9.2-26.9,16.1h-0.4c-6.1-16.1-18.4-28.4-38.8-36.1c-19.2-6.9-44.1-8.8-71.8-6.9
	c10,1.9,19.6,4.6,28,7.7c17.3,6.1,31.1,15,42.2,24.9C224.9,21.8,70.6,197.2,22.2,310c-53.7,124.7-10.4,249.1,133.6,310.5
	c143.5,61.8,333.1,37.6,386.8-87.5c25.7-60.3,27.6-162,6.5-257.9c12.7-5,22.6-13.4,28.8-25.7c16.5-32.6-5.4-81.7-52.6-101.7
	c-8.8-3.8-17.7-6.1-26.5-7.3C482,110.9,462,85.5,438.6,67.1c8.4-1.2,17.3-1.2,26.5,0.8"/>
<path class="st1" d="M267.8,99.3c-79.1-21.1-157.7,27.2-171.9,93.3C81.7,259,131.2,317.7,204.1,337.3
	c72.9,19.2,145.4-6.9,166.2-71.8C391,201,347.3,120.1,267.8,99.3z"/>
<path class="st2" d="M295.9,101.3c18.8,5.4,34.2,22.6,49.5,33c-16.5-15.4-35.7-36.5-59.5-43c-65.6-17.7-130.9,12.7-159.3,61.4
	C163.5,108.5,229.5,83.6,295.9,101.3z"/>
<path class="st3" d="M265.9,85.9c-91-24.6-181.1,33.4-198,111.7c-17.3,78.7,39.5,147.4,122.8,170c83.7,21.9,166.9-9.6,191.1-86
	C406,205.3,356.5,110.1,265.9,85.9z"/>
<path class="st2" d="M254.2,94.5c18.4,2.7,44.2,6.9,59.8,15.6c0.3,0.2,0.3-1.1,0-1.3C296.5,95,267.3,84.3,244.2,81
	c-59.9-7.9-132.6,24.3-158.5,73.4c-0.2,0.3-0.2,2.3,0,2C118.2,110.3,187.7,84.4,254.2,94.5z"/>
<path class="st4" d="M501.8,144.6c-10-18.4-26.5-39.1-39.2-53.7c7.7,15,19.5,36.5,25.7,53.4C492.6,144.3,497.6,143.9,501.8,144.6z
	 M550.2,280.5c-8.8,3.5-18.8,5-29.6,5c3.5,31.9,4.6,64.1,3.5,94.4c18.4,26.5,26.9,61.4,20.7,97.1c-5.8,35.3-24.6,64.9-49.9,84.4
	c12.3-21.1,21.1-45.3,25.3-71.4c1.2-6.9,1.9-13.4,2.3-20.3c-5,25.3-16.1,51.8-31.9,77.1c-24.6,39.1-67.2,77.5-102.5,92.5
	c11.9-10.7,23-22.3,33.8-34.9c-49.1,31.9-108.5,45.2-172.6,43.3c124,19.6,248.1-14.7,291.2-109.7
	C567.5,477.8,570.1,376.4,550.2,280.5z"/>
<path class="st3" d="M563.3,167.3c-48.7-44.1-127.8-32.6-167.3,15c-39.9,48-29.2,112.1,15.7,152.7c45.3,40.3,109.8,44.5,153.5,0
	C609,291.2,612.5,211.4,563.3,167.3z"/>
<path class="st2" d="M564.1,177.7c11.1,10,22.2,21.7,28.7,34.3c-5.8-16.9-17.6-32.4-31.8-45.1c-38.8-34.9-96.3-34.9-135.1-8.4
	C469.3,138.2,524.9,142.4,564.1,177.7z"/>
<path class="st5" d="M512.7,163c-58.7-15.7-117,20.3-127.8,69.5c-10.7,49.5,26.5,93.3,80.6,107.8c54.1,14.2,107.8-5,123.6-53.3
	C604.4,239,571.8,178.8,512.7,163z"/>
<path class="st6" d="M531.5,169.9c35.7,23,55.3,68,43.4,106.7c-15,47.6-64.1,67.9-113.2,55.3c-5.4-1.5-17,0.6-22-1.3
	c9.2,5.8,26.6,9.7,37.7,12.4c49.1,12.7,97.5-11,112.5-58.6C602.9,240.6,577.2,188.7,531.5,169.9z"/>
<path class="st7" d="M267.8,105.1C188.8,84,110.1,132.3,95.9,198.3C81.7,264.7,131.2,323.5,204.1,343
	c72.9,19.2,145.4-6.9,166.2-71.8C391,207.2,347.3,126.2,267.8,105.1z"/>
<path class="st8" d="M240.6,341.5c-72.5-19.6-121.7-80.6-106.3-151.2c8.1-36.8,33.8-68.7,67.9-87.5c-52.6,10-95.6,48.4-105.9,95.6
	C82.1,264.7,131.6,323.5,204.5,343c24.9,6.5,49.9,7.7,72.9,3.8C265.2,346.9,252.9,344.9,240.6,341.5z"/>
<g>
	<path class="st5" d="M214.1,244c6.1,1.5,12.3-1.9,13.8-8.1c1.5-6.1-1.9-12.3-8.1-13.8s-12.3,1.9-13.8,8.1
		C204.5,236.3,208.4,242.5,214.1,244z"/>
	<ellipse class="st5" cx="199.9" cy="240.2" rx="3.5" ry="3.5"/>
</g>
<g>
	<path class="st5" d="M454,295.1c2.7,0.8,5.4-0.8,6.1-3.5c0.8-2.7-0.8-5.4-3.5-6.1c-2.7-0.8-5.4,0.8-6.1,3.5
		C449.7,291.6,451.3,294.3,454,295.1z"/>
	<path class="st5" d="M447.4,294.7c0.8,0.4,1.5-0.4,1.9-1.2c0.4-0.8-0.4-1.5-1.2-1.9s-1.5,0.4-1.9,1.2
		C446.3,293.9,446.7,294.7,447.4,294.7z"/>
</g>
<g class="st9">
	<path class="st4" d="M502.3,431.7c-5.4,1.9-8.4,9.2-6.9,15.4s6.5,8.8,11.9,7.3c5-1.5,8.8-6.9,7.3-13.4
		C513.8,434.4,507.7,429.8,502.3,431.7z"/>
	<path class="st4" d="M458.2,457c-1.9,0.4-3.1,3.1-2.7,5.4c0.4,2.3,2.3,3.5,4.2,3.1s3.1-2.3,3.1-4.6
		C462,458.5,460.1,456.6,458.2,457z"/>
	<path class="st4" d="M537.6,418.2c-0.8-3.1-3.5-5.4-6.1-4.2c-2.7,1.2-3.8,5-3.1,7.7c0.8,3.1,3.5,4.2,6.1,3.5
		C536.5,424,538.4,421.3,537.6,418.2z"/>
	<path class="st4" d="M508.1,408.7c-0.8-3.8-4.6-6.5-8.1-5.4c-3.5,1.2-5,5.8-3.8,9.2c1.2,3.8,4.6,5.4,7.7,4.2
		C506.9,415.9,508.8,412.5,508.1,408.7z"/>
	<path class="st4" d="M478.5,392.1c1.5-0.4,2.7-2.3,1.9-4.2c-0.4-1.9-2.7-3.5-4.2-2.7c-1.9,0.8-2.7,3.1-1.9,5
		C475.1,392.1,477,392.9,478.5,392.1z"/>
	<path class="st4" d="M482.4,378.3c1.2-0.4,1.5-1.5,1.2-2.7c-0.4-1.2-1.5-1.9-2.7-1.5c-1.2,0.4-1.5,1.9-1.2,3.1
		C480.4,378.3,481.6,378.7,482.4,378.3z"/>
	<path class="st4" d="M479.3,420.5c-1.2-4.2-5.4-7.7-9.2-6.5c-3.8,1.2-5.8,6.1-4.6,10.4c1.2,4.2,5,6.1,8.8,5.4
		C477.8,428.6,480.4,424.8,479.3,420.5z"/>
</g>
<g class="st10">
	<path class="st4" d="M77.5,356.5c6.9,5.4,6.9,16.9,1.9,24.2c-5.4,7.7-13.8,8.8-20,4.2c-6.5-4.6-8.4-14.2-3.5-22.3
		C60.6,354.9,71,351.5,77.5,356.5z"/>
	<path class="st4" d="M125.5,414c2.7,1.5,3.1,5.8,1.2,8.4c-1.9,2.7-5,3.5-7.3,1.9c-2.3-1.5-3.5-4.6-1.5-7.7
		C119.3,414,123.2,412.5,125.5,414z"/>
	<path class="st4" d="M35.7,320c2.7-3.8,7.7-5.4,10.7-2.7c3.5,3.1,3.5,8.8,0.4,12.7c-2.7,3.8-6.9,4.2-10,1.5
		C34.1,328.8,33.4,324.2,35.7,320z"/>
	<path class="st4" d="M81.3,321.9c3.1-4.6,9.6-6.5,13.8-3.1c4.2,3.5,3.8,10.4,0.4,14.6c-3.5,4.6-8.8,5-12.7,1.9
		C79,332.3,78.3,326.9,81.3,321.9z"/>
	<path class="st4" d="M130.4,314.2c-1.9-1.5-2.3-4.6-0.8-6.9c1.9-2.3,5.4-3.5,7.3-1.5c2.3,1.9,1.9,5.4,0,7.7
		S132.4,315.8,130.4,314.2z"/>
	<path class="st4" d="M115.1,352.6c3.5-5.8,11.1-8.1,16.1-4.2c5,3.5,5,11.5,1.2,16.9c-3.8,5.4-10.4,6.1-15,2.7
		C112.8,364.9,111.3,358.4,115.1,352.6z"/>
</g>
<g class="st9">
	<path class="st4" d="M371.8,155.7c-1.9,0.4-3.1,3.1-2.7,5.4c0.4,2.3,2.3,3.5,4.2,3.1c1.9-0.4,3.1-2.3,3.1-4.6
		C375.7,157.3,373.8,155.4,371.8,155.7z"/>
	<path class="st4" d="M421.7,107.4c-0.8-3.8-4.6-6.5-8.1-5.4c-3.5,1.2-5,5.8-3.8,9.2c1.2,3.8,4.6,5.4,7.7,4.2
		C420.6,114.3,422.5,111.2,421.7,107.4z"/>
	<path class="st4" d="M392.2,90.9c1.5-0.4,2.7-2.3,1.9-4.2c-0.4-1.9-2.7-3.5-4.2-2.7c-1.9,0.8-2.7,3.1-1.9,5
		C388.7,90.5,390.3,91.3,392.2,90.9z"/>
</g>
<g>
	<path class="st11" d="M504.2,490c-10,12.3-23.8,21.5-23.4,21.5c0,0-11.5-8.1-20.7-19.2c-0.4-0.4-0.8-0.8-1.2-1.2
		c-0.4-0.4-0.8-1.2-1.5-1.5c-5.8-6.9-10-15-12.3-22.6c1.5,8.8,5.8,18,11.9,26.5c-3.5,5-7.7,9.6-12.3,13.8
		c-15.7,15.7-37.2,26.9-36.8,26.9c0,0-8.4-7.3-17.3-18c0,0,0-0.4-0.4-0.4c-4.2-5-8.4-10.4-11.9-16.5c-5-7.7-9.2-16.1-11.5-24.2
		c3.1-2.7,6.5-5.8,9.6-9.2c10.7-10.7,19.2-23.8,23-36.5c-4.2,10.4-12.3,20.7-21.5,29.9c-3.8,3.8-8.4,7.7-12.3,10.7l-0.4,0.4
		c-12.3,9.6-23.8,15.7-23.8,15.7s-6.9-6.1-15-15.4c-0.4-0.4-0.4-0.4-0.8-0.8c-4.6-5.4-9.6-11.9-13.8-18.8
		c-6.9-10.7-12.3-23-13.8-34.2c0.8,13,6.1,27.6,13.8,41.1c3.5,5.8,7.3,11.5,11.1,16.5c-3.8,5.8-8.8,11.5-14.6,16.9
		c-5,5-10,9.2-15,12.7c-0.4,0.4-0.8,0.4-0.8,0.8c-11.1,8.1-20.7,13.4-20.7,13.4c0.4,0-17.7-15.7-29.6-34.9c-2.7-4.2-5-8.4-7.3-12.7
		c-0.4-0.4-0.4-1.2-0.8-1.5c-3.1-6.5-5-13-6.1-19.6c0.4,6.9,1.9,14.2,4.6,21.5c-2.3,2.7-4.6,5.4-7.3,8.1
		c-12.7,12.7-29.6,21.5-29.2,21.5c0.4,0-14.2-12.3-23.4-27.6c-5.8-8.8-9.6-18-11.1-26.9c0.8,10.4,4.6,21.9,11.1,32.6
		c8.8,15.7,22.6,28.4,22.6,28.8c0,0,16.5-9.6,28.8-22.6c3.5-3.5,6.5-7.3,9.6-11.5c2.3,5.8,5,11.9,8.4,17.3
		c11.1,20,28.4,36.1,28.4,36.1s10.7-6.5,22.6-16.1c1.9,8.4,5,16.9,9.2,24.9c10,20.3,26.1,37.6,26.1,38c0,0,21.5-10.7,38-26.1
		c8.8-7.7,16.5-16.9,21.5-26.5c9.2,12.7,18.8,21.1,18.8,21.5c0-0.4,20.7-11.9,36.1-28.4c5.8-5.8,10.7-12.3,15-19.2
		c9.2,12.7,22.3,22.3,21.9,22.3c0,0,13.4-10,23-22.6c6.5-8.4,11.5-18,13.4-27.2C514.6,475.4,510,483.1,504.2,490z M369.2,541.1
		c-16.9,14.6-38.8,24.6-38.4,24.6c0.4,0-16.5-16.9-27.2-36.5c-3.5-6.1-6.5-12.7-8.4-19.2c4.2-3.5,8.1-7.3,11.9-11.1
		c6.9-6.9,12.7-14.6,16.9-22.3c8.4,10.7,16.5,18.4,16.5,18.4s12.7-7.3,25.7-18.8c2.3,10,6.5,20.7,12.3,30.3c2.7,5,6.1,9.6,9.2,14.2
		C383,527.6,376.4,534.9,369.2,541.1z"/>
	<path class="st12" d="M386,517.6c-0.8-0.8-1.2-1.9-1.9-2.7c-0.4-0.4-0.4-0.8-0.8-0.8c-0.4-0.8-1.2-1.5-1.5-2.7
		c-0.4-0.4-0.4-0.8-0.8-1.2c-0.8-1.2-1.5-2.7-2.3-3.8c-0.8-1.2-1.2-2.3-1.9-3.1c0-0.4-0.4-0.4-0.4-0.8c-0.4-1.2-1.2-1.9-1.5-3.1l0,0
		c-0.4-1.2-1.2-2.3-1.5-3.5c0-0.4-0.4-0.4-0.4-0.8c-0.4-1.2-0.8-1.9-1.2-3.1v-0.4c-0.4-1.2-0.8-2.3-1.2-3.1c0-0.4-0.4-0.8-0.4-1.2
		s-0.4-0.4-0.4-0.8c1.9,10.4,6.1,20.7,11.5,30.7c1.5,2.7,3.1,5,4.6,7.3c0.8-1.2,1.9-2.7,2.7-3.8C387.2,519.6,386.8,518.8,386,517.6
		L386,517.6z M321.6,480.4c0,0.4-0.4,0.4-0.4,0.8c-0.4,0.4-0.8,0.8-0.8,1.5c-0.4,0.4-0.8,1.2-1.2,1.5c-0.4,0.4-0.4,0.8-0.8,1.2
		c-0.8,0.8-1.2,1.5-1.9,2.7c0,0,0,0.4-0.4,0.4c-0.8,0.8-1.2,1.5-1.9,2.3c0,0.4-0.4,0.4-0.4,0.8c-0.4,0.8-1.2,1.5-1.5,1.9
		c0,0.4-0.4,0.4-0.4,0.8c-0.8,0.8-1.2,1.5-1.9,1.9l-0.4,0.4c-0.8,0.8-1.5,1.5-2.3,2.3c-2.7,3.1-5.8,5.8-8.8,8.4
		c-0.4,0.4-0.4,0.4-0.8,0.8c-0.4,0.4-1.2,1.2-1.5,1.5c-0.4,0.4-0.8,0.4-0.8,0.8c0.8,1.9,1.5,4.2,2.3,6.1c2.7-2.3,5-5,7.7-7.7
		c7.3-7.7,13.8-16.9,18-25.7c8.8,12.3,17.7,21.1,17.7,21.5c0,0,12.7-7.7,25.3-19.2c0.8-0.8,1.5-1.5,2.3-1.9
		c-0.8-2.3-1.2-4.2-1.5-6.5c-2.3,1.9-5,3.8-7.3,5.8l0,0c-0.8,0.4-1.5,1.2-2.3,1.5l0,0c-0.8,0.4-1.2,0.8-1.9,1.5l-0.4,0.4
		c-0.8,0.4-1.2,0.8-1.9,1.2c-0.4,0-0.4,0.4-0.4,0.4c-0.4,0.4-0.8,0.8-1.2,0.8l-0.4,0.4c-0.4,0.4-1.2,0.8-1.5,1.2
		c-0.4,0-0.4,0.4-0.8,0.4c-0.4,0.4-0.8,0.4-1.2,0.8c-0.4,0-0.4,0.4-0.8,0.4c-0.4,0.4-0.8,0.4-0.8,0.8l-0.4,0.4
		c-0.4,0.4-0.8,0.4-1.2,0.8c0,0,0,0-0.4,0c-0.4,0.4-0.8,0.4-0.8,0.4l0,0c-0.8,0.4-1.2,0.8-1.5,1.2c0,0-0.4,0-0.4,0.4l0,0l0,0
		c0,0-8.1-7.7-16.5-18.4C323.1,477.7,322.3,479.3,321.6,480.4L321.6,480.4z M374.5,476.2c10.7-11.5,19.2-25.3,22.6-38.4v0.4
		c-0.4,1.2-1.2,2.3-1.5,3.1v0.4c-0.4,1.2-1.2,2.3-1.9,3.1c0,0.4-0.4,0.4-0.4,0.8c-0.8,1.2-1.2,2.3-1.9,3.1c0,0,0,0.4-0.4,0.4
		c-0.8,1.2-1.2,1.9-1.9,2.7c0,0.4-0.4,0.4-0.4,0.8c-0.8,1.2-1.5,1.9-2.3,3.1c0,0.4-0.4,0.4-0.4,0.8c-0.8,0.8-1.5,1.9-2.3,2.7
		l-0.4,0.4c-0.8,1.2-1.5,1.9-2.7,3.1c-0.4,0.4-0.4,0.4-0.8,0.8c-0.8,1.2-1.9,1.9-2.7,3.1c-0.8,0.8-1.5,1.5-1.9,2.3l-0.4,0.4
		c-0.8,0.8-1.5,1.5-1.9,1.9c0,0,0,0-0.4,0.4c-0.8,0.8-1.5,1.2-2.3,1.9l0,0c-0.8,0.8-1.5,1.5-2.3,1.9c0.8,1.9,1.2,3.8,1.9,6.1
		C371.1,479.6,372.6,477.7,374.5,476.2z M320.4,478.9c1.2-1.2,1.9-2.7,2.7-3.8l-0.4-0.4c-0.8-1.2-1.5-1.9-2.3-3.1
		c0-0.4-0.4-0.4-0.4-0.8c-0.8-1.2-1.5-2.3-2.7-3.5c0,0,0-0.4-0.4-0.4c-0.8-1.2-1.9-2.7-2.7-3.8l0,0c-0.8-1.5-1.5-2.7-2.7-4.2
		c-1.9-3.5-3.8-6.5-5.4-10s-3.1-6.9-4.2-10.4c1.9,10.4,6.1,20.7,11.5,30.7C316.2,472.4,318.1,475.8,320.4,478.9z M289.3,514.2
		L289.3,514.2c-1.5,1.2-2.7,2.3-4.2,3.1c0,0,0,0-0.4,0c-1.2,0.8-2.3,1.9-3.5,2.7c0,0-0.4,0-0.4,0.4c-0.4,0.4-0.8,0.8-1.5,1.2
		c0,0,0,0-0.4,0c-0.4,0.4-0.8,0.8-1.5,0.8l-0.4,0.4c-0.4,0-0.4,0.4-0.8,0.4l-0.4,0.4c-0.4,0.4-0.8,0.4-1.2,0.8
		c-0.4,0-0.4,0.4-0.8,0.4c0,0,0,0-0.4,0c-1.5,1.2-2.7,1.9-3.1,1.9l0,0l0,0c0-0.4-17.3-16.5-28.4-36.1c-0.8-1.2-1.5-2.7-2.3-3.8
		c-0.4-0.4-0.4-0.8-0.8-1.2c-0.4-0.8-1.2-1.9-1.5-2.7c-0.4-0.8-0.4-1.2-0.8-1.9s-0.8-1.5-1.2-2.3c-0.4-0.8-0.8-1.5-0.8-1.9
		s-0.4-0.8-0.4-0.8c-0.4-0.8-0.4-1.2-0.8-1.9c0-0.4,0-0.4-0.4-0.8l0,0c0,0,0,0.4-0.4,0.4c-0.4,0.4-0.8,1.2-1.2,1.5s-0.4,0.8-0.8,0.8
		c-0.4,0.8-1.2,1.5-1.5,1.9c-0.4,0.4-0.4,0.4-0.8,0.8c-0.4,0.8-1.2,1.2-1.5,1.9c-0.4,0.4-0.8,0.8-0.8,1.2c-0.8,0.8-1.5,1.9-2.3,2.7
		c-2.7,2.7-5.4,5.4-8.4,8.1l0,0c-0.4,0.4-0.8,0.8-1.2,0.8l0,0c-0.4,0.4-0.8,0.4-1.2,0.8c0,0,0,0-0.4,0.4c-0.4,0.4-0.8,0.4-0.8,0.8
		c0,0-0.4,0-0.4,0.4c-0.4,0.4-0.4,0.4-0.8,0.8l-0.4,0.4c-0.4,0.4-0.4,0.4-0.8,0.4l-0.4,0.4c-0.4,0-0.4,0.4-0.8,0.4l-0.4,0.4
		c-0.4,0-0.4,0.4-0.8,0.4l-0.4,0.4l-0.4,0.4c-0.4,0-0.4,0.4-0.8,0.4c0,0-0.4,0-0.4,0.4c-0.4,0-0.4,0.4-0.8,0.4c0,0,0,0-0.4,0
		c-0.4,0.4-0.4,0.4-0.8,0.8l0,0c-5,3.5-8.4,5.4-8.4,5.8c0,0-1.2-1.2-2.7-2.7l0,0l-0.4-0.4l-0.4-0.4c0,0,0,0,0-0.4l-0.4-0.4l0,0
		c-0.4-0.4-0.4-0.4-0.8-0.8l0,0c-0.4-0.4-0.4-0.4-0.8-0.8l0,0c-0.4-0.4-0.4-0.4-0.8-0.8l0,0c-0.4-0.8-1.2-1.2-1.5-1.9l0,0
		c-0.4-0.4-0.4-0.8-0.8-1.2l0,0c-0.4-0.4-0.4-0.8-0.8-1.2l0,0c-0.4-0.4-0.4-0.8-0.8-0.8l0,0c-0.4-0.4-0.4-0.8-0.8-1.2
		c0,0,0,0-0.4-0.4c-0.4-0.4-0.4-0.8-0.8-0.8l-0.4-0.4c-0.4-0.4-0.4-0.4-0.8-0.8c0,0,0-0.4-0.4-0.4c-0.4-0.4-0.4-0.8-0.8-0.8
		l-0.4-0.4c-0.4-0.4-0.4-0.4-0.8-0.8l-0.4-0.4c0-0.4-0.4-0.4-0.4-0.8c0-0.4-0.4-0.4-0.4-0.8s-0.4-0.4-0.4-0.8
		c-0.4-0.4-0.4-0.4-0.8-0.8l-0.4-0.4c-0.4-0.4-0.4-0.8-0.8-1.2c0,0,0-0.4-0.4-0.4c-0.4-0.4-0.4-0.8-0.8-1.2c0,0,0-0.4-0.4-0.4
		c-0.4-0.4-0.4-0.8-0.8-1.2l0,0c-0.4-0.4-0.4-0.8-0.8-1.5l0,0c-0.4-0.4-0.4-1.2-0.8-1.5c-3.1-5-5.8-10.7-7.7-16.1
		c1.5,8.1,4.6,16.5,9.2,24.2c8.1,15.4,21.1,27.6,21.1,27.6s15.4-9.2,26.9-22.3c4.6-5,8.4-10.4,11.9-15.7c2.3,8.1,5.8,16.5,10.4,24.6
		c10.4,19.2,26.5,34.9,26.5,34.9s11.9-7.3,24.2-18.4c1.5,9.6,4.6,19.2,9.2,28.4c9.2,19.6,24.2,36.5,24.2,36.5s20-10.4,35.7-25.7
		c9.6-9.2,18-20,22.6-31.1c9.6,14.6,20.3,24.9,20.3,25.3c0,0,19.2-11.5,33.8-28c7.3-7.7,13.4-16.1,17.7-24.9
		c0.4,0.8,1.2,1.5,1.5,2.3c8.4,12.7,21.1,22.3,21.1,22.3s12.7-9.6,21.5-21.9c6.9-8.8,11.5-19.2,12.7-28.4v0.4c0,0.4-0.4,1.2-0.4,1.5
		c-0.4,0.4-0.4,1.2-0.8,1.5c-0.4,0.4-0.4,1.2-0.8,1.5c-0.4,0.8-0.8,1.2-0.8,1.9c-0.4,0.4-0.4,1.2-0.8,1.5c-0.4,0.8-0.8,1.5-1.5,2.7
		c-0.4,0.4-0.4,0.8-0.8,1.2c-0.4,0.8-0.8,1.2-1.2,1.9c-0.4,0.4-0.4,0.8-0.8,1.2c-0.4,0.8-0.8,1.2-1.2,1.9c-0.4,0.4-0.4,0.8-0.8,1.2
		c-0.8,1.2-1.5,1.9-2.3,2.7c-3.5,4.6-7.7,9.2-11.5,12.7l0,0c-0.8,0.8-1.2,1.2-1.9,1.5l0,0c-0.4,0.4-1.2,1.2-1.5,1.5l0,0
		c-0.4,0.4-1.2,0.8-1.5,1.2l0,0c-0.4,0.4-0.8,0.8-1.2,1.2l0,0c-2.7,2.3-4.6,3.5-4.6,3.8c0,0-0.4-0.4-1.2-0.8
		c-3.5-2.7-13.4-11.1-21.1-21.5c-0.4,0.8-0.8,1.2-1.2,1.9l0,0l0,0c-0.4,0.4-0.8,1.2-1.2,1.5c0,0.4-0.4,0.4-0.4,0.8
		c-0.4,0.4-0.8,0.8-0.8,1.2c-0.4,0.4-0.8,0.8-0.8,1.2c-0.4,0.4-0.4,0.8-0.8,1.2s-0.8,0.8-1.2,1.5c-0.4,0.4-0.4,0.4-0.8,0.8
		c-0.4,0.4-0.8,1.2-1.2,1.5c0,0.4-0.4,0.4-0.4,0.8c-0.4,0.4-0.8,1.2-1.5,1.5l-0.4,0.4c-0.4,0.8-1.2,1.2-1.5,1.9l-0.4,0.4
		c-0.8,0.8-1.5,1.5-1.9,2.3c-15.7,16.5-36.1,28.4-36.1,28.4s-6.9-6.5-14.6-16.5l-0.4-0.4c0-0.4-0.4-0.4-0.4-0.8
		c-1.2-1.2-1.9-2.3-3.1-3.8l0,0l0,0c-0.8,1.5-1.5,2.7-2.7,4.2l0,0c-0.4,0.8-0.8,1.2-1.2,1.9c-0.4,0.4-0.4,0.8-0.8,1.2
		c-0.8,1.2-1.5,1.9-2.3,3.1c-0.4,0.4-0.4,0.8-0.8,1.2c-0.4,0.8-1.2,1.5-1.5,2.3c-0.4,0.4-0.8,0.8-1.2,1.2c-0.4,0.8-1.2,1.2-1.5,1.9
		c-0.4,0.4-0.8,0.8-1.2,1.2c-0.4,0.8-1.2,1.2-1.5,1.9c-0.4,0.4-0.8,0.8-1.2,1.2c-0.8,0.8-1.2,1.2-1.9,1.9c-0.4,0.4-0.8,0.8-1.2,1.2
		c-1.2,0.8-1.9,1.9-3.1,2.7c-16.5,15.7-38,26.1-38,26.1s-1.5-1.9-3.8-4.6l0,0c0-0.4-0.4-0.4-0.4-0.8l-0.4-0.4l-0.4-0.4
		c0-0.4-0.4-0.4-0.4-0.8c0,0,0,0,0-0.4c-0.4-0.4-0.4-0.8-0.8-0.8l0,0c-5.8-6.9-13.8-18-19.6-30.3c-0.8-1.2-1.2-2.7-1.9-3.8
		c0-0.4-0.4-0.8-0.4-1.2c-0.8-1.2-1.2-2.7-1.5-3.8l0,0c-0.8-1.5-1.2-2.7-1.5-4.2c0-0.4,0-0.4-0.4-0.8c-0.4-1.2-0.8-2.3-1.2-3.8V515
		l0,0"/>
</g>
<g>
	<g>
		<path d="M347.7,440.1c-0.8-1.9-0.8-3.5-1.2-5.4c-1.2-3.8-1.5-7.3-1.5-10.4c0-0.8-0.4-1.5-0.4-2.3c0-0.4,0-0.8,0-0.8
			c-0.4-1.5-0.8-2-1.2-3.5c-0.8,1.2-1.1,0.8-1.5,1.2c-14.2-3.5-28.8-6.9-42.6-8.4c-15.4-1.5-28-0.8-40.3,2.7
			c-9.6,2.7-18.8,7.3-28,13.8c-10,6.9-19.6,15.7-29.2,26.9c-11.5,13.4-24.6,22.3-38,26.1c-7.7,2.3-15.7,3.1-24.2,2.3
			c-6.5-0.8-13-2.3-20-5c-11.1-4.6-18.4-10.4-18.4-10.4c-0.4-0.4-0.4-0.4-0.8,0l0,0c-0.4,0-0.4,0.4-0.8,0.8
			c-1.2,8.1,0.4,15.7,4.2,22.6c3.1,5.8,7.7,10.7,13.8,15.4c8.1,5.8,16.1,9.2,19.6,10.7c-0.4,0.4-1.2,0.4-1.5,0.8
			c-6.1,1.9-15,0.4-15,0.4h-0.4c-0.4,0-0.4,0-0.4,0.4c-0.4,0.4-0.4,0.8,0,1.2c22.6,39.1,67.5,30.7,86,25.7c1.9-0.4,3.5-1.2,5-1.5
			c-4.2,4.6-8.8,9.2-8.8,9.2c-0.4,0.4-0.4,0.8-0.4,1.2s0.4,0.8,0.8,0.4c6.9,0,13.4-1.2,20.3-3.1c26.1-7.7,46.1-26.9,57.6-38.4
			c-2.7,8.4-5.8,17.7-5.8,17.7c0,0.4,0,0.8,0.4,1.2c0.4,0,0.4,0.4,0.8,0h0.4c13.4-9.6,22.6-18,28.8-26.1c3.1-4.2,8.8-13.8,11.5-18.8
			c1.5-3.5,4.2-11.5,6.1-17.3c0,4.2,0.8,9.2,3.1,11.1c0.8,0.8,1.9,0.8,3.1,0.4c0.4,0,0.8-0.4,1.2-0.4c5-2.7,10-8.4,10.7-9.2l0,0
			c6.1-7.3,7.3-19.2,8.1-25.7c0-0.8,0.4-1.5,0.4-2.3C348.4,442.4,348,441.3,347.7,440.1z"/>
		<g>
			<path class="st13" d="M202.6,454.7c-49.1,56-101.7,13.4-101.7,13.4c-4.6,34.9,39.1,48.4,39.1,48.4c-2.7,2.3-7.7,2.7-11.9,2.7
				c-1.9,0.4-5,0-7.3-0.8c1.9,3.1,5.4,8.1,7.7,10.4c28.8,13,61.4,18.4,87.5,9.2c0.4,0,1.2-0.4,1.5-0.4c0,0,0,0,0,0.4
				c67.9-16.9,95.9-66.4,95.9-66.4c34.5-44.9,11.5-54.1,8.8-56C277,407.1,244,407.1,202.6,454.7z"/>
			<path class="st14" d="M279,416.3c-15.7,0.8-34.5,5-54.5,16.9c-7.3,5.8-14.6,13-21.9,21.5c-49.1,56-101.7,13.4-101.7,13.4
				c-0.8,5.8-0.4,10.7,1.2,15c18.4,32.6,59.1,37.2,94.8,34.5c44.5-5.4,68.3-29.2,73.7-34.9c15-15.7,22.6-25.7,22.6-25.7
				C311.6,431.3,290.9,417.9,279,416.3z"/>
			<path class="st15" d="M288.6,425.9c0,0-3.8-1.5-9.2-0.8c-14.2,1.5-42.2,8.4-59.5,30.7c-23.8,31.1-52.2,44.5-72.9,37.6
				c0,0,25.7,21.5,69.5-17.7s1.2,13-6.1,18c0,0,26.5-13.8,36.1-29.9c0,0,3.8-3.8,2.3,3.1c-2.3,8.1-8.4,16.9-8.1,20
				c0,0,14.6-20,28.8-28C282.8,451.2,302.8,432.4,288.6,425.9z"/>
		</g>
		<g>
			<path d="M348,441.7c-1.2,1.5-0.8,19.6-8.4,29.2c0,0-5.4,6.1-10.4,8.8c-0.4,0-0.8,0.4-0.8,0.4c-6.1,1.9-5-17.3-5-17.3
				s-5.4,17.7-8.1,23c-2.3,5-8.1,14.2-11.1,18.8c-6.1,8.4-16.1,16.9-28.4,25.7c0,0,4.2-11.9,7.3-21.5c-10.4,10.7-31.9,33-59.9,41.1
				c-6.5,1.9-13,3.1-20,3.1c0,0,6.9-6.9,11.5-12.3c0,0-3.1,1.2-8.4,2.7c-18.4,5.4-62.6,13-84.8-24.9c0,0,9.2,1.5,15.4-0.4
				c1.5-0.4,2.7-1.2,3.8-1.9c0,0-43.7-13.8-39.1-48.4c0,0,28.4,23,62.9,13c12.3-3.5,25.7-11.5,38.8-26.5
				c20.3-23,38.8-35.3,56.8-40.3c26.1-7.7,52.2-1.5,82.9,6.1c0,0,0.4-0.8,1.5-2.3c-0.4-0.8-0.6,0.5-0.9-0.3c-0.8,0.8-1-0.1-1.4,0.3
				c-14.2-3.5-28.4-6.9-41.8-8.4c-15.4-1.5-28.4-0.8-40.7,2.7c-10,2.7-19.2,7.3-28.4,13.8c-10,6.9-19.6,15.7-29.6,27.2
				c-11.5,13-24.2,21.9-37.6,25.7c-7.7,2.3-15.7,3.1-23.8,1.9c-6.5-0.8-13-2.3-19.6-5c-11.1-4.2-18-10-18-10
				c-0.4-0.4-1.2-0.4-1.9-0.4l0,0c-0.8,0.4-1.2,0.8-1.2,1.5c-1.2,8.4,0.4,16.1,4.2,23.4c3.1,5.8,8.1,11.1,14.2,15.7
				c6.5,5,13,8.1,17.7,10c-5.8,1.5-13.8,0-13.8,0c-0.4,0-0.8,0-0.8,0c-0.4,0-0.8,0.4-1.2,0.8c-0.4,0.8-0.4,1.5,0,1.9
				c5.4,9.2,12.3,16.5,20.7,21.5c7.3,4.2,15.4,7.3,24.6,8.4c7.3,1.2,15.4,0.8,23.8,0c6.1-0.8,12.3-1.9,18-3.8c0.4,0,1.2-0.4,1.5-0.4
				c-3.5,3.5-6.1,6.5-6.5,6.5c-0.4,0.4-0.8,1.5-0.4,1.9c0.4,0.8,1.2,1.2,1.9,1.2c6.9,0,13.8-1.2,20.7-3.1c6.5-1.9,13-4.6,19.6-8.1
				c5.4-3.1,11.1-6.5,16.5-10.7c7.7-5.8,13.8-11.9,18.8-16.9c-2.3,7.3-4.6,13.8-4.6,13.8c-0.4,0.8,0,1.5,0.8,2.3
				c0.4,0.4,1.2,0.4,1.5,0.4s0.4,0,0.4-0.4c6.5-4.6,11.9-8.8,16.5-13c5-4.6,8.8-8.8,12.3-13c3.1-4.2,9.2-13.8,11.5-18.8
				c1.2-2.7,3.1-8.1,4.6-13c0.4,3.8,1.5,6.1,3.1,7.3c1.2,0.8,2.7,1.2,3.8,0.8c0.4,0,0.8-0.4,1.2-0.4c2.3-1.2,4.6-3.1,7.3-5.8
				l3.5-3.5c6.1-7.3,7.7-19.6,8.4-26.1v-0.4C348.8,444,348.4,442.8,348,441.7z"/>
		</g>
	</g>
</g>
<g>
	<g>
		<path d="M335.8,439.7c0.8-1.9,1.2-3.5,1.5-5c1.5-3.8,2.3-7.3,2.7-10.4c0-0.8,0.4-1.5,0.4-1.9s0-0.8,0-0.8c0.8-1.5,1.2-2.7,1.5-4.2
			c0.8,1.2,1.2,1.9,1.2,2.3c14.6-1.9,29.6-3.8,43-4.2c15.4,0,28,1.9,39.5,6.9c9.2,3.8,18,9.2,26.5,16.5c9.2,7.7,17.7,17.7,26.5,29.9
			c10.4,14.6,22.3,24.6,35.3,29.9c7.7,3.1,15.4,4.6,23.8,4.6c6.5,0,13.4-0.8,20.3-2.7c11.5-3.5,19.2-8.1,19.2-8.4
			c0.4,0,0.8-0.4,0.8,0l0,0c0.4,0,0.4,0.4,0.4,0.8c0.4,8.1-1.9,15.7-6.5,22.3c-3.8,5.4-8.8,10-15.4,13.8c-8.4,5-16.9,7.7-20.7,8.4
			c0.4,0.4,1.2,0.4,1.5,0.8c5.8,2.3,15,1.9,15,1.9h0.4c0.4,0,0.4,0.4,0.4,0.4c0,0.4,0,0.8,0,1.2c-26.5,36.5-70.6,23.8-88.3,16.5
			c-1.9-0.8-3.5-1.5-4.6-1.9c3.8,5,7.7,10,7.7,10.4c0.4,0.4,0.4,0.8,0,1.2c0,0.4-0.4,0.4-0.8,0.4c-6.5-0.8-13.4-2.7-20-5
			c-25.3-10.4-43-31.5-53.3-44.1c1.9,8.8,3.8,18,4.2,18c0,0.4,0,0.8-0.4,1.2c-0.4,0-0.4,0-0.8,0c0,0,0,0-0.4,0
			c-12.3-10.7-20.7-20.3-25.7-28.8c-2.7-4.6-7.7-14.6-9.2-20c-1.2-3.5-3.1-11.9-4.2-17.7c-0.8,4.2-1.9,9.2-4.2,10.7
			c-0.8,0.8-1.9,0.8-3.1,0.4c-0.4,0-0.8-0.4-1.2-0.8c-4.6-3.1-9.2-9.2-9.6-10.4l0,0c-5.4-7.7-5.4-20-5.4-26.1c0-0.8,0-1.5,0-2.3
			C335,441.7,335.4,440.5,335.8,439.7z"/>
		<g>
			<path class="st13" d="M478.9,468.9c43,60.6,99.8,23.4,99.8,23.4c1.2,34.9-44.1,44.1-44.1,44.1c2.7,2.3,7.3,3.5,11.5,3.8
				c1.9,0.8,5,0.4,7.3,0c-2.3,2.7-6.1,7.3-8.8,9.6c-29.9,10.4-62.9,11.9-87.9,0.4c-0.4-0.4-0.8-0.4-1.5-0.8c0,0,0,0,0,0.4
				c-65.6-23.8-88.7-76-88.7-76c-29.9-48-5.8-54.9-3.1-56.8C409.4,413.6,442.5,417.5,478.9,468.9z"/>
			<path class="st14" d="M406.8,422.8c15.4,2.3,33.8,8.4,52.6,22.3c6.5,6.5,13,14.2,19.6,23.4c43,60.6,99.8,23.4,99.8,23.4
				c0,5.8-0.8,10.7-2.7,15c-21.5,30.7-62.6,31.1-97.5,24.6c-43.7-10-64.9-36.1-69.8-42.2c-13.4-17.3-20-28-20-28
				C372.6,434.4,394.5,423.2,406.8,422.8z"/>
			<path class="st15" d="M396.4,431.7c0,0,3.8-1.2,9.2,0c14.2,3.1,41.1,12.7,56,36.8c20.3,33.4,47.6,49.5,68.7,44.9
				c0,0-27.6,18.8-67.2-24.6s-2.3,12.7,4.2,18.4c0,0-24.9-16.5-32.6-33.4c0,0-3.5-4.2-2.3,2.7c1.5,8.4,6.5,17.3,5.8,20.7
				c0,0-12.7-21.5-25.7-30.7C399.1,457.4,381.4,436.7,396.4,431.7z"/>
		</g>
		<g>
			<path d="M335.4,440.9c0.8,1.9-1.2,19.6,5.8,29.9c0,0,5,6.5,9.2,10c0.4,0.4,0.8,0.4,0.8,0.4c5.8,2.3,6.5-16.5,6.5-16.5
				s3.5,18,5.8,23.8c1.9,5,6.5,15,9.2,19.6c5.4,9.2,14.2,18.4,25.7,28.8c0,0-2.7-12.3-5-22.3c9.2,11.5,28.4,36.1,55.3,46.8
				c6.1,2.3,12.7,4.2,19.6,5c0,0-6.1-7.7-10-13.4c0,0,3.1,1.5,8.1,3.8c17.7,7.3,61,19.6,87.1-16.1c0,0-9.2,0.8-15.4-1.9
				c-1.5-0.4-2.7-1.2-3.5-2.3c0,0,45.3-9.2,44.1-44.1c0,0-30.7,20.3-64.1,6.5c-11.9-5-24.2-14.2-35.7-30.3
				c-17.7-24.9-34.9-38.8-52.6-46.1c-25.3-10.4-51.8-6.9-82.9-2.7c0,0-0.4-0.4-1.2-1.9c0.4-0.8,1.6,0.8,1-0.1
				c0.4,1.2,0.9-0.7,1.3-0.3c14.2-1.9,29.2-3.8,42.6-3.8c15.4,0,28,1.9,39.9,6.9c9.6,3.8,18,9.2,26.9,16.5
				c9.2,7.7,17.7,17.7,26.5,29.9c10,14.2,21.9,24.2,34.9,29.6c7.3,3.1,15.4,4.6,23.4,4.6c6.5,0,13.4-0.8,20-2.7
				c11.5-3.1,18.8-8.1,19.2-8.1c0.4-0.4,1.2-0.4,1.9,0l0,0c0.8,0.4,1.2,0.8,1.2,1.5c0.4,8.4-1.9,16.1-6.9,22.6
				c-3.8,5.4-9.2,10-15.7,14.2c-6.9,4.2-13.8,6.5-18.4,8.1c5.8,1.9,13.8,1.5,13.8,1.5c0.4,0,0.8,0,0.8,0c0.4,0,0.8,0.4,0.8,0.8
				c0.4,0.8,0.4,1.5,0,1.9c-6.1,8.4-13.8,15-22.6,19.2c-7.7,3.5-16.1,5.4-25.3,5.8c-7.3,0.4-15.4-0.8-23.4-2.7
				c-5.8-1.5-11.9-3.5-17.7-5.8c-0.4-0.4-0.8-0.4-1.5-0.4c3.1,3.8,5.8,7.3,5.8,7.3c0.4,0.8,0.4,1.5,0,1.9c-0.4,0.8-1.2,1.2-1.9,1.2
				c-6.9-0.8-13.4-2.7-20-5.4c-6.1-2.7-12.7-5.8-18.4-10c-5-3.5-10.4-7.7-15.4-12.7c-6.9-6.5-12.7-13-17.3-18.4
				c1.5,7.3,3.1,14.2,3.1,14.2c0,0.8,0,1.5-0.8,1.9c-0.4,0.4-1.2,0.4-1.5,0c-0.4,0-0.4,0-0.4-0.4c-6.1-5.4-11.1-10-15.4-15
				c-4.6-5-8.1-9.6-10.7-14.2s-7.7-14.6-9.6-20c-1.2-2.7-2.3-8.4-3.5-13.4c-0.8,3.5-2.3,5.8-3.8,6.9c-1.2,0.8-2.7,0.8-3.8,0.4
				c-0.4,0-0.8-0.4-1.2-0.8c-1.9-1.5-4.2-3.5-6.9-6.5l-3.1-3.8c-5.4-8.1-5.4-20.3-5.8-26.9v-0.4C334.2,443.2,334.6,442,335.4,440.9z
				"/>
		</g>
	</g>
</g>
</svg>
