<?xml version="1.0" encoding="utf-8"?>
<!-- Generator: Adobe Illustrator 25.1.0, SVG Export Plug-In . SVG Version: 6.00 Build 0)  -->
<svg version="1.1" id="Layer_1" xmlns="http://www.w3.org/2000/svg" xmlns:xlink="http://www.w3.org/1999/xlink" x="0px" y="0px"
	 viewBox="0 0 450 450.1" style="enable-background:new 0 0 450 450.1;" xml:space="preserve">
<g transform="translate(0.000000,1280.000000) scale(0.100000,-0.100000)">
	<path d="M137.1,12735.1c0-45.4-1.4-65.7-4.2-68.6s-23.2-4.2-68.6-4.2H0v-21.1v-21.1h64.3c45.4,0,65.7-1.4,68.6-4.2
		c6-6,6-259.8,0-265.8c-2.8-2.8-23.2-4.2-68.6-4.2H0v-21.1v-21.1h64.3c45.4,0,65.7-1.4,68.6-4.2c6-6,6-259.8,0-265.8
		c-2.8-2.8-23.2-4.2-68.6-4.2H0v-21.1v-21.1h64.3c45.4,0,65.7-1.4,68.6-4.2c6-6,6-259.8,0-265.8c-2.8-2.8-23.2-4.2-68.6-4.2H0v-21.1
		v-21.1h64.3c45.4,0,65.7-1.4,68.6-4.2c6-6,6-259.8,0-265.8c-2.8-2.8-23.2-4.2-68.6-4.2H0v-21.1v-21.1h64.3
		c45.4,0,65.7-1.4,68.6-4.2c6-6,6-259.8,0-265.8c-2.8-2.8-23.2-4.2-68.6-4.2H0v-21.1v-21.1h64.3c45.4,0,65.7-1.4,68.6-4.2
		c6-6,6-259.8,0-265.8c-2.8-2.8-23.2-4.2-68.6-4.2H0v-21.1v-21.1h61.9c35.9,0,64.3-1.4,68.6-3.5c6.3-3.5,6.7-8.8,6.7-132.9
		c0-96-1.1-130.4-4.2-133.6c-2.8-2.8-23.2-4.2-68.6-4.2H0v-21.1v-21.1h61.9c35.9,0,64.3-1.4,68.6-3.5c6.3-3.5,6.7-8.8,6.7-132.9
		c0-96-1.1-130.4-4.2-133.6c-2.8-2.8-23.2-4.2-68.6-4.2H0v-21.1v-21.1h61.9c35.9,0,64.3-1.4,68.6-3.5c6.3-3.5,6.7-8.8,6.7-132.9
		c0-96-1.1-130.4-4.2-133.6c-2.8-2.8-23.2-4.2-68.6-4.2H0v-21.1v-21.2h61.9c35.9,0,64.3-1.4,68.6-3.5c6.3-3.5,6.7-8.8,6.7-132.9
		c0-96-1.1-130.4-4.2-133.6c-2.8-2.8-23.2-4.2-68.6-4.2H0v-21.1V9456h61.9c35.9,0,64.3-1.4,68.6-3.5c6.3-3.5,6.7-8.8,6.7-132.9
		c0-96-1.1-130.4-4.2-133.6c-2.8-2.8-23.2-4.2-68.6-4.2H0v-21.1v-21.1h61.9c35.9,0,64.3-1.4,68.6-3.5c6.3-3.5,6.7-8.8,6.7-132.9
		c0-96-1.1-130.4-4.2-133.6c-2.8-2.8-23.2-4.2-68.6-4.2H0v-21.1v-21.1h61.9c35.9,0,64.3-1.4,68.6-3.5c6.3-3.5,6.7-8.8,6.7-132.9
		c0-96-1.1-130.4-4.2-133.6c-2.8-2.8-23.2-4.2-68.6-4.2H0v-21.1v-21.1h62.9c52.7,0,64-1.1,68.6-5.6c4.9-4.6,5.6-19,5.6-103.7v-98.1
		h21.1h21.1v98.1c0,84.7,0.7,99.1,5.6,103.7c4.6,4.9,21.4,5.6,130.1,5.6c79.5,0,127.3-1.4,131.8-3.5c6.3-3.5,6.7-8.4,6.7-103.7
		v-100.2h21.1h21.1v98.1c0,84.7,0.7,99.1,5.6,103.7c4.6,4.9,21.4,5.6,130.1,5.6c79.5,0,127.3-1.4,131.8-3.5
		c6.3-3.5,6.7-8.4,6.7-103.7v-100.2H791h21.1v98.1c0,84.7,0.7,99.1,5.6,103.7c4.6,4.9,21.4,5.6,130.1,5.6
		c79.5,0,127.3-1.4,131.8-3.5c6.3-3.5,6.7-8.4,6.7-103.7v-100.2h21.1h21.1v98.1c0,84.7,0.7,99.1,5.6,103.7
		c4.6,4.9,21.4,5.6,130.1,5.6c79.5,0,127.3-1.4,131.8-3.5c6.3-3.5,6.7-8.4,6.7-103.7v-100.2h21.1h21.1v98.1
		c0,84.7,0.7,99.1,5.6,103.7c4.6,4.9,21.4,5.6,130.1,5.6c79.5,0,127.3-1.4,131.8-3.5c6.3-3.5,6.7-8.4,6.7-103.7v-100.2h21.1h21.1
		v98.1c0,84.7,0.7,99.1,5.6,103.7c4.6,4.9,21.4,5.6,130.1,5.6c79.5,0,127.3-1.4,131.8-3.5c6.3-3.5,6.7-8.4,6.7-103.7v-100.2h21.1
		h21.1v98.1c0,84.7,0.7,99.1,5.6,103.7c4.6,4.9,21.4,5.6,130.1,5.6c79.5,0,127.3-1.4,131.8-3.5c6.3-3.5,6.7-8.4,6.7-103.7v-100.2
		h21.1h21.1v98.1c0,84.7,0.7,99.1,5.6,103.7c4.6,4.9,21.4,5.6,130.1,5.6c79.5,0,127.3-1.4,131.8-3.5c6.3-3.5,6.7-8.4,6.7-103.7
		v-100.2h21.1h21.1v98.1c0,84.7,0.7,99.1,5.6,103.7c4.6,4.9,21.4,5.6,130.1,5.6c79.5,0,127.3-1.4,131.8-3.5
		c6.3-3.5,6.7-8.4,6.7-103.7v-100.2h21.1h21.1v98.1c0,84.7,0.7,99.1,5.6,103.7c4.6,4.9,21.4,5.6,130.1,5.6
		c79.5,0,127.3-1.4,131.8-3.5c6.3-3.5,6.7-8.4,6.7-103.7v-100.2h21.1h21.1v98.1c0,84.7,0.7,99.1,5.6,103.7
		c4.6,4.9,21.4,5.6,130.1,5.6c79.5,0,127.3-1.4,131.8-3.5c6.3-3.5,6.7-8.4,6.7-103.7v-100.2h21.1h21.1v98.1
		c0,84.7,0.7,99.1,5.6,103.7c4.6,4.9,21.4,5.6,130.1,5.6c79.5,0,127.3-1.4,131.8-3.5c6.3-3.5,6.7-8.4,6.7-103.7v-100.2h21.1h21.1
		v98.1c0,84.7,0.7,99.1,5.6,103.7c4.6,4.9,21.4,5.6,130.1,5.6c79.5,0,127.3-1.4,131.8-3.5c6.3-3.5,6.7-8.4,6.7-103.7v-100.2h21.1
		h21.1v98.1c0,84.7,0.7,99.1,5.6,103.7c4.6,4.9,19,5.6,103.7,5.6h98.1v21.1v21.1h-100.2c-95.3,0-100.2,0.4-103.7,6.7
		c-2.1,4.6-3.5,52.4-3.5,131.8c0,108.6,0.7,125.5,5.6,130.1c4.6,4.9,19,5.6,103.7,5.6h98.1v21.1v21.1h-100.2
		c-95.3,0-100.2,0.4-103.7,6.7c-2.1,4.6-3.5,52.4-3.5,131.8c0,108.6,0.7,125.5,5.6,130.1c4.6,4.9,19,5.6,103.7,5.6h98.1v21.1v21.1
		h-100.2c-95.3,0-100.2,0.4-103.7,6.7c-2.1,4.6-3.5,52.4-3.5,131.8c0,108.6,0.7,125.5,5.6,130.1c4.6,4.9,19,5.6,103.7,5.6h98.1v21.1
		v21.1h-100.2c-95.3,0-100.2,0.4-103.7,6.7c-2.1,4.6-3.5,52.4-3.5,131.8c0,108.6,0.7,125.5,5.6,130.1c4.6,4.9,19,5.6,103.7,5.6h98.1
		v21.1v21.1h-100.2c-95.3,0-100.2,0.4-103.7,6.7c-2.1,4.6-3.5,52.4-3.5,131.8c0,108.6,0.7,125.5,5.6,130.1c4.6,4.9,19,5.6,103.7,5.6
		h98.1v21.1v21.1h-100.2c-95.3,0-100.2,0.4-103.7,6.7c-2.1,4.6-3.5,52.4-3.5,131.8c0,108.6,0.7,125.5,5.6,130.1
		c4.6,4.9,19,5.6,103.7,5.6h98.1v21.1v21.1h-100.2c-95.3,0-100.2,0.4-103.7,6.7c-2.1,4.6-3.5,52.4-3.5,131.8
		c0,108.6,0.7,125.5,5.6,130.1c4.6,4.9,19,5.6,103.7,5.6h98.1v21.1v21.1h-100.2c-95.3,0-100.2,0.4-103.7,6.7
		c-2.1,4.6-3.5,52.4-3.5,131.8c0,108.6,0.7,125.5,5.6,130.1c4.6,4.9,19,5.6,103.7,5.6h98.1v21.1v21.1h-100.2
		c-95.3,0-100.2,0.4-103.7,6.7c-2.1,4.6-3.5,52.4-3.5,131.8c0,108.6,0.7,125.5,5.6,130.1c4.6,4.9,19,5.6,103.7,5.6h98.1v21.1v21.1
		h-100.2c-95.3,0-100.2,0.4-103.7,6.7c-2.1,4.6-3.5,52.4-3.5,131.8c0,108.6,0.7,125.5,5.6,130.1c4.6,4.9,19,5.6,103.7,5.6h98.1v21.1
		v21.1h-100.2c-95.3,0-100.2,0.4-103.7,6.7c-2.1,4.6-3.5,52.4-3.5,131.8c0,108.6,0.7,125.5,5.6,130.1c4.6,4.9,19,5.6,103.7,5.6h98.1
		v21.1v21.1h-100.2c-95.3,0-100.2,0.4-103.7,6.7c-2.1,4.6-3.5,52.4-3.5,131.8c0,108.6,0.7,125.5,5.6,130.1c4.6,4.9,19,5.6,103.7,5.6
		h98.1v21.1v21.1h-100.2c-95.3,0-100.2,0.4-103.7,6.7c-2.1,4.6-3.5,52.4-3.5,131.8c0,108.6,0.7,125.5,5.6,130.1
		c4.6,4.9,19,5.6,103.7,5.6h98.1v21.1v21.1h-98.1c-84.7,0-99.1,0.7-103.7,5.6c-4.6,4.6-5.6,15.8-5.6,68.6v62.9h-21.1h-21.1v-64.3
		c0-45.4-1.4-65.7-4.2-68.6c-3.2-3.2-37.6-4.2-133.6-4.2c-124.1,0-129.4,0.4-132.9,6.7c-2.1,4.2-3.5,32.7-3.5,68.6v61.9H3955h-21
		v-64.3c0-45.4-1.4-65.7-4.2-68.6c-3.2-3.2-37.6-4.2-133.6-4.2c-124.1,0-129.4,0.4-132.9,6.7c-2.1,4.2-3.5,32.7-3.5,68.6v61.9h-21.1
		h-21.1v-64.3c0-45.4-1.4-65.7-4.2-68.6c-3.2-3.2-37.6-4.2-133.6-4.2c-124.1,0-129.4,0.4-132.9,6.7c-2.1,4.2-3.5,32.7-3.5,68.6v61.9
		h-21.1h-21.1v-64.3c0-45.4-1.4-65.7-4.2-68.6c-3.2-3.2-37.6-4.2-133.6-4.2c-124.1,0-129.4,0.4-132.9,6.7
		c-2.1,4.2-3.5,32.7-3.5,68.6v61.9h-21.1h-21.1v-64.3c0-45.4-1.4-65.7-4.2-68.6c-3.2-3.2-37.6-4.2-133.6-4.2
		c-124.1,0-129.4,0.4-132.9,6.7c-2.1,4.2-3.5,32.7-3.5,68.6v61.9h-21.1h-21.1v-64.3c0-45.4-1.4-65.7-4.2-68.6
		c-3.2-3.2-37.6-4.2-133.6-4.2c-124.1,0-129.4,0.4-132.9,6.7c-2.1,4.2-3.5,32.7-3.5,68.6v61.9H2373h-21v-64.3
		c0-45.4-1.4-65.7-4.2-68.6c-3.2-3.2-37.6-4.2-133.6-4.2c-124.1,0-129.4,0.4-132.9,6.7c-2.1,4.2-3.5,32.7-3.5,68.6v61.9h-21.1h-21.1
		v-64.3c0-45.4-1.4-65.7-4.2-68.6c-6-6-259.8-6-265.8,0c-2.8,2.8-4.2,23.2-4.2,68.6v64.3h-21.1h-21.1v-64.3
		c0-45.4-1.4-65.7-4.2-68.6c-6-6-259.8-6-265.8,0c-2.8,2.8-4.2,23.2-4.2,68.6v64.3h-21.1h-21.1v-64.3c0-45.4-1.4-65.7-4.2-68.6
		c-6-6-259.8-6-265.8,0c-2.8,2.8-4.2,23.2-4.2,68.6v64.3h-21.1h-21.1v-64.3c0-45.4-1.4-65.7-4.2-68.6c-3.2-3.2-37.6-4.2-132.9-4.2
		s-129.7,1.1-132.9,4.2c-2.8,2.8-4.2,23.2-4.2,68.6v64.3H791h-21.1v-64.3c0-45.4-1.4-65.7-4.2-68.6c-6-6-259.8-6-265.8,0
		c-2.8,2.8-4.2,23.2-4.2,68.6v64.3h-21.1h-21.1v-64.3c0-45.4-1.4-65.7-4.2-68.6c-6-6-259.8-6-265.8,0c-2.8,2.8-4.2,23.2-4.2,68.6
		v64.3h-21.1h-21.1C137.1,12800,137.1,12735.1,137.1,12735.1z M449.3,12615.9c6-6,6-259.8,0-265.8s-259.8-6-265.8,0
		s-6,259.8,0,265.8c3.2,3.2,37.6,4.2,132.9,4.2S446.1,12619,449.3,12615.9z M765.7,12615.9c6-6,6-259.8,0-265.8s-259.8-6-265.8,0
		s-6,259.8,0,265.8c3.2,3.2,37.6,4.2,132.9,4.2S762.5,12619,765.7,12615.9z M1082.1,12615.9c6-6,6-259.8,0-265.8s-259.8-6-265.8,0
		s-6,259.8,0,265.8c3.2,3.2,37.6,4.2,132.9,4.2S1078.9,12619,1082.1,12615.9z M1398.5,12615.9c6-6,6-259.8,0-265.8s-259.8-6-265.8,0
		s-6,259.8,0,265.8c3.2,3.2,37.6,4.2,132.9,4.2S1395.4,12619,1398.5,12615.9z M1714.9,12615.9c6-6,6-259.8,0-265.8s-259.8-6-265.8,0
		s-6,259.8,0,265.8c3.2,3.2,37.6,4.2,132.9,4.2S1711.8,12619,1714.9,12615.9z M2031.3,12615.9c6-6,6-259.8,0-265.8s-259.8-6-265.8,0
		c-5.6,5.6-6,252.8-0.7,263.3c3.5,6.3,8.8,6.7,132.9,6.7C1993.7,12620.1,2028.2,12619,2031.3,12615.9z M2347.7,12615.9
		c6-6,6-259.8,0-265.8s-259.8-6-265.8,0c-5.6,5.6-6,252.8-0.7,263.3c3.5,6.3,8.8,6.7,132.9,6.7
		C2310.1,12620.1,2344.6,12619,2347.7,12615.9z M2664.1,12615.9c6-6,6-259.8,0-265.8c-3.2-3.2-37.6-4.2-133.6-4.2
		c-124.1,0-129.4,0.4-132.9,6.7c-2.1,4.6-3.5,52-3.5,130.4s1.4,125.9,3.5,130.4c3.5,6.3,8.8,6.7,132.9,6.7
		C2626.5,12620.1,2661,12619,2664.1,12615.9z M2980.5,12615.9c6-6,6-259.8,0-265.8c-3.2-3.2-37.6-4.2-133.6-4.2
		c-124.1,0-129.4,0.4-132.9,6.7c-2.1,4.6-3.5,52-3.5,130.4s1.4,125.9,3.5,130.4c3.5,6.3,8.8,6.7,132.9,6.7
		C2942.9,12620.1,2977.4,12619,2980.5,12615.9z M3297,12615.9c6-6,6-259.8,0-265.8c-3.2-3.2-37.6-4.2-133.6-4.2
		c-124.1,0-129.4,0.4-132.9,6.7c-2.1,4.6-3.5,52-3.5,130.4s1.4,125.9,3.5,130.4c3.5,6.3,8.8,6.7,132.9,6.7
		C3259.3,12620.1,3293.8,12619,3297,12615.9z M3613.4,12615.9c6-6,6-259.8,0-265.8c-3.2-3.2-37.6-4.2-133.6-4.2
		c-124.1,0-129.4,0.4-132.9,6.7c-2.1,4.6-3.5,52-3.5,130.4s1.4,125.9,3.5,130.4c3.5,6.3,8.8,6.7,132.9,6.7
		C3575.7,12620.1,3610.2,12619,3613.4,12615.9z M3929.8,12615.9c6-6,6-259.8,0-265.8c-3.2-3.2-37.6-4.2-133.6-4.2
		c-124.1,0-129.4,0.4-132.9,6.7c-2.1,4.6-3.5,52.4-3.5,131.8c0,108.6,0.7,125.5,5.6,130.1c4.6,4.9,21.8,5.6,132.9,5.6
		C3892.5,12620.1,3926.6,12619,3929.8,12615.9z M4246.2,12615.9c6-6,6-259.8,0-265.8c-3.2-3.2-37.6-4.2-133.6-4.2
		c-124.1,0-129.4,0.4-132.9,6.7c-2.1,4.6-3.5,52.4-3.5,131.8c0,108.6,0.7,125.5,5.6,130.1c4.6,4.9,21.8,5.6,132.9,5.6
		C4208.9,12620.1,4243,12619,4246.2,12615.9z M449.3,12299.5c6-6,6-259.8,0-265.8s-259.8-6-265.8,0s-6,259.8,0,265.8
		c3.2,3.2,37.6,4.2,132.9,4.2S446.1,12302.6,449.3,12299.5z M765.7,12299.5c6-6,6-259.8,0-265.8s-259.8-6-265.8,0s-6,259.8,0,265.8
		c3.2,3.2,37.6,4.2,132.9,4.2S762.5,12302.6,765.7,12299.5z M1082.1,12299.5c6-6,6-259.8,0-265.8s-259.8-6-265.8,0s-6,259.8,0,265.8
		c3.2,3.2,37.6,4.2,132.9,4.2S1078.9,12302.6,1082.1,12299.5z M1398.5,12299.5c6-6,6-259.8,0-265.8s-259.8-6-265.8,0
		s-6,259.8,0,265.8c3.2,3.2,37.6,4.2,132.9,4.2S1395.4,12302.6,1398.5,12299.5z M1714.9,12299.5c6-6,6-259.8,0-265.8
		s-259.8-6-265.8,0c-5.6,5.6-6,252.8-0.7,263.3c3.5,6.3,8.8,6.7,132.9,6.7C1677.3,12303.7,1711.8,12302.6,1714.9,12299.5z
		 M2031.3,12299.5c6-6,6-259.8,0-265.8s-259.8-6-265.8,0c-5.6,5.6-6,252.8-0.7,263.3c3.5,6.3,8.8,6.7,132.9,6.7
		C1993.7,12303.7,2028.2,12302.6,2031.3,12299.5z M2347.7,12299.5c6-6,6-259.8,0-265.8c-3.2-3.2-37.6-4.2-133.6-4.2
		c-124.1,0-129.4,0.4-132.9,6.7c-2.1,4.6-3.5,52-3.5,130.4s1.4,125.9,3.5,130.4c3.5,6.3,8.8,6.7,132.9,6.7
		C2310.1,12303.7,2344.6,12302.6,2347.7,12299.5z M2664.1,12299.5c6-6,6-259.8,0-265.8c-3.2-3.2-37.6-4.2-133.6-4.2
		c-124.1,0-129.4,0.4-132.9,6.7c-2.1,4.6-3.5,52-3.5,130.4s1.4,125.9,3.5,130.4c3.5,6.3,8.8,6.7,132.9,6.7
		C2626.5,12303.7,2661,12302.6,2664.1,12299.5z M2980.5,12299.5c6-6,6-259.8,0-265.8c-3.2-3.2-37.6-4.2-133.6-4.2
		c-124.1,0-129.4,0.4-132.9,6.7c-2.1,4.6-3.5,52-3.5,130.4s1.4,125.9,3.5,130.4c3.5,6.3,8.8,6.7,132.9,6.7
		C2942.9,12303.7,2977.4,12302.6,2980.5,12299.5z M3297,12299.5c6-6,6-259.8,0-265.8c-3.2-3.2-37.6-4.2-133.6-4.2
		c-124.1,0-129.4,0.4-132.9,6.7c-2.1,4.6-3.5,52.4-3.5,131.8c0,108.6,0.7,125.5,5.6,130.1c4.6,4.9,21.8,5.6,132.9,5.6
		C3259.7,12303.7,3293.8,12302.6,3297,12299.5z M3613.4,12299.5c6-6,6-259.8,0-265.8c-3.2-3.2-37.6-4.2-133.6-4.2
		c-124.1,0-129.4,0.4-132.9,6.7c-2.1,4.6-3.5,52.4-3.5,131.8c0,108.6,0.7,125.5,5.6,130.1c4.6,4.9,21.8,5.6,132.9,5.6
		C3576.1,12303.7,3610.2,12302.6,3613.4,12299.5z M3929.8,12299.5c6-6,6-259.8,0-265.8c-3.2-3.2-37.6-4.2-133.6-4.2
		c-124.1,0-129.4,0.4-132.9,6.7c-2.1,4.6-3.5,52.4-3.5,131.8c0,108.6,0.7,125.5,5.6,130.1c4.6,4.9,21.8,5.6,132.9,5.6
		C3892.5,12303.7,3926.6,12302.6,3929.8,12299.5z M4246.2,12299.5c6-6,6-259.8,0-265.8c-3.2-3.2-37.6-4.2-133.6-4.2
		c-124.1,0-129.4,0.4-132.9,6.7c-2.1,4.6-3.5,52.4-3.5,131.8c0,108.6,0.7,125.5,5.6,130.1c4.6,4.9,21.8,5.6,132.9,5.6
		C4208.9,12303.7,4243,12302.6,4246.2,12299.5z M449.3,11983.1c6-6,6-259.8,0-265.8s-259.8-6-265.8,0s-6,259.8,0,265.8
		c3.2,3.2,37.6,4.2,132.9,4.2S446.1,11986.2,449.3,11983.1z M765.7,11983.1c6-6,6-259.8,0-265.8s-259.8-6-265.8,0s-6,259.8,0,265.8
		c3.2,3.2,37.6,4.2,132.9,4.2S762.5,11986.2,765.7,11983.1z M1082.1,11983.1c6-6,6-259.8,0-265.8s-259.8-6-265.8,0s-6,259.8,0,265.8
		c3.2,3.2,37.6,4.2,132.9,4.2S1078.9,11986.2,1082.1,11983.1z M1398.5,11983.1c6-6,6-259.8,0-265.8s-259.8-6-265.8,0
		s-6,259.8,0,265.8c3.2,3.2,37.6,4.2,132.9,4.2S1395.4,11986.2,1398.5,11983.1z M1714.9,11983.1c6-6,6-259.8,0-265.8
		s-259.8-6-265.8,0s-6,259.8,0,265.8c3.2,3.2,37.6,4.2,132.9,4.2S1711.8,11986.2,1714.9,11983.1z M2031.3,11983.1
		c6-6,6-259.8,0-265.8s-259.8-6-265.8,0c-5.6,5.6-6,252.8-0.7,263.3c3.5,6.3,8.8,6.7,132.9,6.7
		C1993.7,11987.3,2028.2,11986.2,2031.3,11983.1z M2347.7,11983.1c6-6,6-259.8,0-265.8s-259.8-6-265.8,0c-5.6,5.6-6,252.8-0.7,263.3
		c3.5,6.3,8.8,6.7,132.9,6.7C2310.1,11987.3,2344.6,11986.2,2347.7,11983.1z M2664.1,11983.1c6-6,6-259.8,0-265.8
		c-3.2-3.2-37.6-4.2-133.6-4.2c-124.1,0-129.4,0.4-132.9,6.7c-2.1,4.6-3.5,52.4-3.5,131.8c0,108.6,0.7,125.5,5.6,130.1
		c4.6,4.9,21.8,5.6,132.9,5.6C2626.9,11987.3,2661,11986.2,2664.1,11983.1z M2980.5,11983.1c6-6,6-259.8,0-265.8
		c-3.2-3.2-37.6-4.2-133.6-4.2c-124.1,0-129.4,0.4-132.9,6.7c-2.1,4.6-3.5,52.4-3.5,131.8c0,108.6,0.7,125.5,5.6,130.1
		c4.6,4.9,21.8,5.6,132.9,5.6C2943.3,11987.3,2977.4,11986.2,2980.5,11983.1z M3297,11983.1c6-6,6-259.8,0-265.8
		c-3.2-3.2-37.6-4.2-133.6-4.2c-124.1,0-129.4,0.4-132.9,6.7c-2.1,4.6-3.5,52.4-3.5,131.8c0,108.6,0.7,125.5,5.6,130.1
		c4.6,4.9,21.8,5.6,132.9,5.6C3259.7,11987.3,3293.8,11986.2,3297,11983.1z M3613.4,11983.1c6-6,6-259.8,0-265.8
		c-3.2-3.2-37.6-4.2-133.6-4.2c-124.1,0-129.4,0.4-132.9,6.7c-2.1,4.6-3.5,52.4-3.5,131.8c0,108.6,0.7,125.5,5.6,130.1
		c4.6,4.9,21.8,5.6,132.9,5.6C3576.1,11987.3,3610.2,11986.2,3613.4,11983.1z M3929.8,11983.1c6-6,6-259.8,0-265.8
		c-3.2-3.2-37.6-4.2-133.6-4.2c-124.1,0-129.4,0.4-132.9,6.7c-2.1,4.6-3.5,52.4-3.5,131.8c0,108.6,0.7,125.5,5.6,130.1
		c4.6,4.9,21.8,5.6,132.9,5.6C3892.5,11987.3,3926.6,11986.2,3929.8,11983.1z M4246.2,11983.1c6-6,6-259.8,0-265.8
		c-3.2-3.2-37.6-4.2-133.6-4.2c-124.1,0-129.4,0.4-132.9,6.7c-2.1,4.6-3.5,52.4-3.5,131.8c0,108.6,0.7,125.5,5.6,130.1
		c4.6,4.9,21.8,5.6,132.9,5.6C4208.9,11987.3,4243,11986.2,4246.2,11983.1z M449.3,11666.7c6-6,6-259.8,0-265.8s-259.8-6-265.8,0
		s-6,259.8,0,265.8c3.2,3.2,37.6,4.2,132.9,4.2S446.1,11669.8,449.3,11666.7z M765.7,11666.7c6-6,6-259.8,0-265.8s-259.8-6-265.8,0
		s-6,259.8,0,265.8c3.2,3.2,37.6,4.2,132.9,4.2S762.5,11669.8,765.7,11666.7z M1082.1,11666.7c6-6,6-259.8,0-265.8s-259.8-6-265.8,0
		s-6,259.8,0,265.8c3.2,3.2,37.6,4.2,132.9,4.2S1078.9,11669.8,1082.1,11666.7z M1398.5,11666.7c6-6,6-259.8,0-265.8
		s-259.8-6-265.8,0s-6,259.8,0,265.8c3.2,3.2,37.6,4.2,132.9,4.2S1395.4,11669.8,1398.5,11666.7z M1714.9,11666.7
		c6-6,6-259.8,0-265.8s-259.8-6-265.8,0c-5.6,5.6-6,252.8-0.7,263.3c3.5,6.3,8.8,6.7,132.9,6.7
		C1677.3,11670.9,1711.8,11669.8,1714.9,11666.7z M2031.3,11666.7c6-6,6-259.8,0-265.8s-259.8-6-265.8,0c-5.6,5.6-6,252.8-0.7,263.3
		c3.5,6.3,8.8,6.7,132.9,6.7C1993.7,11670.9,2028.2,11669.8,2031.3,11666.7z M2347.7,11666.7c6-6,6-259.8,0-265.8s-259.8-6-265.8,0
		c-3.2,3.2-4.2,37.3-4.2,131.5c0,111.1,0.7,128.3,5.6,132.9c4.6,4.9,21.8,5.6,132.9,5.6
		C2310.5,11670.9,2344.6,11669.8,2347.7,11666.7z M2664.1,11666.7c6-6,6-259.8,0-265.8c-3.2-3.2-37.6-4.2-133.6-4.2
		c-124.1,0-129.4,0.4-132.9,6.7c-2.1,4.6-3.5,52.4-3.5,131.8c0,108.6,0.7,125.5,5.6,130.1c4.6,4.9,21.8,5.6,132.9,5.6
		C2626.9,11670.9,2661,11669.8,2664.1,11666.7z M2980.5,11666.7c6-6,6-259.8,0-265.8c-3.2-3.2-37.6-4.2-133.6-4.2
		c-124.1,0-129.4,0.4-132.9,6.7c-2.1,4.6-3.5,52.4-3.5,131.8c0,108.6,0.7,125.5,5.6,130.1c4.6,4.9,21.8,5.6,132.9,5.6
		C2943.3,11670.9,2977.4,11669.8,2980.5,11666.7z M3297,11666.7c6-6,6-259.8,0-265.8c-3.2-3.2-37.6-4.2-133.6-4.2
		c-124.1,0-129.4,0.4-132.9,6.7c-2.1,4.6-3.5,52.4-3.5,131.8c0,108.6,0.7,125.5,5.6,130.1c4.6,4.9,21.8,5.6,132.9,5.6
		C3259.7,11670.9,3293.8,11669.8,3297,11666.7z M3613.4,11666.7c6-6,6-259.8,0-265.8c-3.2-3.2-37.6-4.2-133.6-4.2
		c-124.1,0-129.4,0.4-132.9,6.7c-2.1,4.6-3.5,52.4-3.5,131.8c0,108.6,0.7,125.5,5.6,130.1c4.6,4.9,21.8,5.6,132.9,5.6
		C3576.1,11670.9,3610.2,11669.8,3613.4,11666.7z M3929.8,11666.7c6-6,6-259.8,0-265.8c-3.2-3.2-37.6-4.2-133.6-4.2
		c-124.1,0-129.4,0.4-132.9,6.7c-2.1,4.6-3.5,52.4-3.5,131.8c0,108.6,0.7,125.5,5.6,130.1c4.6,4.9,21.8,5.6,132.9,5.6
		C3892.5,11670.9,3926.6,11669.8,3929.8,11666.7z M4246.2,11666.7c6-6,6-259.8,0-265.8c-3.2-3.2-37.6-4.2-133.6-4.2
		c-124.1,0-129.4,0.4-132.9,6.7c-2.1,4.6-3.5,52.4-3.5,131.8c0,108.6,0.7,125.5,5.6,130.1c4.6,4.9,21.8,5.6,132.9,5.6
		C4208.9,11670.9,4243,11669.8,4246.2,11666.7z M449.3,11350.3c6-6,6-259.8,0-265.8s-259.8-6-265.8,0s-6,259.8,0,265.8
		c3.2,3.2,37.6,4.2,132.9,4.2S446.1,11353.4,449.3,11350.3z M765.7,11350.3c6-6,6-259.8,0-265.8s-259.8-6-265.8,0s-6,259.8,0,265.8
		c3.2,3.2,37.6,4.2,132.9,4.2S762.5,11353.4,765.7,11350.3z M1082.1,11350.3c6-6,6-259.8,0-265.8s-259.8-6-265.8,0
		c-3.2,3.2-4.2,37.6-4.2,133.6c0,119.2,0.4,129.4,6.3,132.5C827.6,11356.2,1076.5,11355.9,1082.1,11350.3z M1398.5,11350.3
		c6-6,6-259.8,0-265.8s-259.8-6-265.8,0c-3.2,3.2-4.2,37.3-4.2,131.5c0,111.1,0.7,128.3,5.6,132.9c4.6,4.9,21.8,5.6,132.9,5.6
		C1361.2,11354.5,1395.4,11353.4,1398.5,11350.3z M1714.9,11350.3c6-6,6-259.8,0-265.8s-259.8-6-265.8,0
		c-3.2,3.2-4.2,37.3-4.2,131.5c0,111.1,0.7,128.3,5.6,132.9c4.6,4.9,21.8,5.6,132.9,5.6
		C1677.7,11354.5,1711.8,11353.4,1714.9,11350.3z M2031.3,11350.3c6-6,6-259.8,0-265.8s-259.8-6-265.8,0
		c-3.2,3.2-4.2,37.3-4.2,131.5c0,111.1,0.7,128.3,5.6,132.9c4.6,4.9,21.8,5.6,132.9,5.6
		C1994.1,11354.5,2028.2,11353.4,2031.3,11350.3z M2347.7,11350.3c6-6,6-259.8,0-265.8s-259.8-6-265.8,0
		c-3.2,3.2-4.2,37.3-4.2,131.5c0,111.1,0.7,128.3,5.6,132.9c4.6,4.9,21.8,5.6,132.9,5.6
		C2310.5,11354.5,2344.6,11353.4,2347.7,11350.3z M2664.1,11350.3c6-6,6-259.8,0-265.8s-259.8-6-265.8,0
		c-3.2,3.2-4.2,37.3-4.2,131.5c0,111.1,0.7,128.3,5.6,132.9c4.6,4.9,21.8,5.6,132.9,5.6C2626.9,11354.5,2661,11353.4,2664.1,11350.3
		z M2980.5,11350.3c6-6,6-259.8,0-265.8c-3.2-3.2-37.6-4.2-133.6-4.2c-124.1,0-129.4,0.4-132.9,6.7c-2.1,4.6-3.5,52.4-3.5,131.8
		c0,108.6,0.7,125.5,5.6,130.1c4.6,4.9,21.8,5.6,132.9,5.6C2943.3,11354.5,2977.4,11353.4,2980.5,11350.3z M3297,11350.3
		c6-6,6-259.8,0-265.8c-3.2-3.2-37.6-4.2-133.6-4.2c-124.1,0-129.4,0.4-132.9,6.7c-2.1,4.6-3.5,52.4-3.5,131.8
		c0,108.6,0.7,125.5,5.6,130.1c4.6,4.9,21.8,5.6,132.9,5.6C3259.7,11354.5,3293.8,11353.4,3297,11350.3z M3613.4,11350.3
		c6-6,6-259.8,0-265.8c-3.2-3.2-37.6-4.2-133.6-4.2c-124.1,0-129.4,0.4-132.9,6.7c-2.1,4.6-3.5,52.4-3.5,131.8
		c0,108.6,0.7,125.5,5.6,130.1c4.6,4.9,21.8,5.6,132.9,5.6C3576.1,11354.5,3610.2,11353.4,3613.4,11350.3z M3929.8,11350.3
		c6-6,6-259.8,0-265.8c-3.2-3.2-37.6-4.2-133.6-4.2c-124.1,0-129.4,0.4-132.9,6.7c-2.1,4.6-3.5,52.4-3.5,131.8
		c0,108.6,0.7,125.5,5.6,130.1c4.6,4.9,21.8,5.6,132.9,5.6C3892.5,11354.5,3926.6,11353.4,3929.8,11350.3z M4246.2,11350.3
		c6-6,6-259.8,0-265.8c-3.2-3.2-37.6-4.2-133.6-4.2c-124.1,0-129.4,0.4-132.9,6.7c-2.1,4.6-3.5,52.4-3.5,131.8
		c0,108.6,0.7,125.5,5.6,130.1c4.6,4.9,21.8,5.6,132.9,5.6C4208.9,11354.5,4243,11353.4,4246.2,11350.3z M449.3,11033.9
		c6-6,6-259.8,0-265.8s-259.8-6-265.8,0c-3.2,3.2-4.2,37.6-4.2,133.6c0,119.2,0.4,129.4,6.3,132.5
		C194.8,11039.8,443.7,11039.5,449.3,11033.9z M765.7,11033.9c6-6,6-259.8,0-265.8s-259.8-6-265.8,0s-6,259.8,0,265.8
		c3.2,3.2,37.6,4.2,132.9,4.2S762.5,11037,765.7,11033.9z M1082.1,11033.9c6-6,6-259.8,0-265.8s-259.8-6-265.8,0
		c-3.2,3.2-4.2,37.6-4.2,133.6c0,119.2,0.4,129.4,6.3,132.5C827.6,11039.8,1076.5,11039.5,1082.1,11033.9z M1398.5,11033.9
		c6-6,6-259.8,0-265.8s-259.8-6-265.8,0c-3.2,3.2-4.2,37.3-4.2,131.5c0,111.1,0.7,128.3,5.6,132.9c4.6,4.9,21.8,5.6,132.9,5.6
		C1361.2,11038.1,1395.4,11037,1398.5,11033.9z M1714.9,11033.9c6-6,6-259.8,0-265.8s-259.8-6-265.8,0c-3.2,3.2-4.2,37.3-4.2,131.5
		c0,111.1,0.7,128.3,5.6,132.9c4.6,4.9,21.8,5.6,132.9,5.6C1677.7,11038.1,1711.8,11037,1714.9,11033.9z M2031.3,11033.9
		c6-6,6-259.8,0-265.8s-259.8-6-265.8,0c-3.2,3.2-4.2,37.3-4.2,131.5c0,111.1,0.7,128.3,5.6,132.9c4.6,4.9,21.8,5.6,132.9,5.6
		C1994.1,11038.1,2028.2,11037,2031.3,11033.9z M2347.7,11033.9c6-6,6-259.8,0-265.8s-259.8-6-265.8,0c-3.2,3.2-4.2,37.3-4.2,131.5
		c0,111.1,0.7,128.3,5.6,132.9c4.6,4.9,21.8,5.6,132.9,5.6C2310.5,11038.1,2344.6,11037,2347.7,11033.9z M2664.1,11033.9
		c6-6,6-259.8,0-265.8s-259.8-6-265.8,0c-3.2,3.2-4.2,37.3-4.2,131.5c0,111.1,0.7,128.3,5.6,132.9c4.6,4.9,21.8,5.6,132.9,5.6
		C2626.9,11038.1,2661,11037,2664.1,11033.9z M2980.5,11033.9c6-6,6-259.8,0-265.8c-3.2-3.2-37.6-4.2-133.6-4.2
		c-124.1,0-129.4,0.4-132.9,6.7c-2.1,4.6-3.5,52.4-3.5,131.8c0,108.6,0.7,125.5,5.6,130.1c4.6,4.9,21.8,5.6,132.9,5.6
		C2943.3,11038.1,2977.4,11037,2980.5,11033.9z M3297,11033.9c6-6,6-259.8,0-265.8c-3.2-3.2-37.6-4.2-133.6-4.2
		c-124.1,0-129.4,0.4-132.9,6.7c-2.1,4.6-3.5,52.4-3.5,131.8c0,108.6,0.7,125.5,5.6,130.1c4.6,4.9,21.8,5.6,132.9,5.6
		C3259.7,11038.1,3293.8,11037,3297,11033.9z M3613.4,11033.9c6-6,6-259.8,0-265.8c-3.2-3.2-37.6-4.2-133.6-4.2
		c-124.1,0-129.4,0.4-132.9,6.7c-2.1,4.6-3.5,52.4-3.5,131.8c0,108.6,0.7,125.5,5.6,130.1c4.6,4.9,21.8,5.6,132.9,5.6
		C3576.1,11038.1,3610.2,11037,3613.4,11033.9z M3929.8,11033.9c6-6,6-259.8,0-265.8c-3.2-3.2-37.6-4.2-133.6-4.2
		c-124.1,0-129.4,0.4-132.9,6.7c-2.1,4.6-3.5,52.4-3.5,131.8c0,108.6,0.7,125.5,5.6,130.1c4.6,4.9,21.8,5.6,132.9,5.6
		C3892.5,11038.1,3926.6,11037,3929.8,11033.9z M4246.2,11033.9c6-6,6-259.8,0-265.8c-3.2-3.2-37.6-4.2-133.6-4.2
		c-124.1,0-129.4,0.4-132.9,6.7c-2.1,4.6-3.5,52.4-3.5,131.8c0,108.6,0.7,125.5,5.6,130.1c4.6,4.9,21.8,5.6,132.9,5.6
		C4208.9,11038.1,4243,11037,4246.2,11033.9z M446.8,10718.2c6.3-3.5,6.7-8.8,6.7-132.9c0-96-1.1-130.4-4.2-133.6
		c-6-6-259.8-6-265.8,0c-3.2,3.2-4.2,37.6-4.2,133.6c0,119.2,0.4,129.4,6.3,132.5C194.1,10722.7,437.7,10723.1,446.8,10718.2z
		 M763.2,10718.2c6.3-3.5,6.7-8.8,6.7-132.9c0-96-1.1-130.4-4.2-133.6c-6-6-259.8-6-265.8,0c-3.2,3.2-4.2,37.6-4.2,133.6
		c0,119.2,0.4,129.4,6.3,132.5C510.5,10722.7,754.1,10723.1,763.2,10718.2z M1082.1,10717.4c6-6,6-259.8,0-265.8s-259.8-6-265.8,0
		c-3.2,3.2-4.2,37.6-4.2,133.6c0,119.2,0.4,129.4,6.3,132.5C827.6,10723.4,1076.5,10723.1,1082.1,10717.4z M1398.5,10717.4
		c6-6,6-259.8,0-265.8s-259.8-6-265.8,0c-3.2,3.2-4.2,37.3-4.2,131.5c0,111.1,0.7,128.3,5.6,132.9c4.6,4.9,21.8,5.6,132.9,5.6
		C1361.2,10721.7,1395.4,10720.6,1398.5,10717.4z M1714.9,10717.4c6-6,6-259.8,0-265.8s-259.8-6-265.8,0
		c-3.2,3.2-4.2,37.3-4.2,131.5c0,111.1,0.7,128.3,5.6,132.9c4.6,4.9,21.8,5.6,132.9,5.6
		C1677.7,10721.7,1711.8,10720.6,1714.9,10717.4z M2031.3,10717.4c6-6,6-259.8,0-265.8s-259.8-6-265.8,0
		c-3.2,3.2-4.2,37.3-4.2,131.5c0,111.1,0.7,128.3,5.6,132.9c4.6,4.9,21.8,5.6,132.9,5.6
		C1994.1,10721.7,2028.2,10720.6,2031.3,10717.4z M2347.7,10717.4c6-6,6-259.8,0-265.8s-259.8-6-265.8,0
		c-3.2,3.2-4.2,37.3-4.2,131.5c0,111.1,0.7,128.3,5.6,132.9c4.6,4.9,21.8,5.6,132.9,5.6
		C2310.5,10721.7,2344.6,10720.6,2347.7,10717.4z M2664.1,10717.4c6-6,6-259.8,0-265.8s-259.8-6-265.8,0
		c-3.2,3.2-4.2,37.3-4.2,131.5c0,111.1,0.7,128.3,5.6,132.9c4.6,4.9,21.8,5.6,132.9,5.6C2626.9,10721.7,2661,10720.6,2664.1,10717.4
		z M2980.5,10717.4c6-6,6-259.8,0-265.8c-3.2-3.2-37.6-4.2-133.6-4.2c-124.1,0-129.4,0.4-132.9,6.7c-2.1,4.6-3.5,52.4-3.5,131.8
		c0,108.6,0.7,125.5,5.6,130.1c4.6,4.9,21.8,5.6,132.9,5.6C2943.3,10721.7,2977.4,10720.6,2980.5,10717.4z M3297,10717.4
		c6-6,6-259.8,0-265.8c-3.2-3.2-37.6-4.2-133.6-4.2c-124.1,0-129.4,0.4-132.9,6.7c-2.1,4.6-3.5,52.4-3.5,131.8
		c0,108.6,0.7,125.5,5.6,130.1c4.6,4.9,21.8,5.6,132.9,5.6C3259.7,10721.7,3293.8,10720.6,3297,10717.4z M3613.4,10717.4
		c6-6,6-259.8,0-265.8c-3.2-3.2-37.6-4.2-133.6-4.2c-124.1,0-129.4,0.4-132.9,6.7c-2.1,4.6-3.5,52.4-3.5,131.8
		c0,108.6,0.7,125.5,5.6,130.1c4.6,4.9,21.8,5.6,132.9,5.6C3576.1,10721.7,3610.2,10720.6,3613.4,10717.4z M3929.8,10717.4
		c6-6,6-259.8,0-265.8c-3.2-3.2-37.6-4.2-133.6-4.2c-124.1,0-129.4,0.4-132.9,6.7c-2.1,4.6-3.5,52.4-3.5,131.8
		c0,108.6,0.7,125.5,5.6,130.1c4.6,4.9,21.8,5.6,132.9,5.6C3892.5,10721.7,3926.6,10720.6,3929.8,10717.4z M4246.2,10717.4
		c6-6,6-259.8,0-265.8c-3.2-3.2-37.6-4.2-133.6-4.2c-124.1,0-129.4,0.4-132.9,6.7c-2.1,4.6-3.5,52.4-3.5,131.8
		c0,108.6,0.7,125.5,5.6,130.1c4.6,4.9,21.8,5.6,132.9,5.6C4208.9,10721.7,4243,10720.6,4246.2,10717.4z M446.8,10401.7
		c6.3-3.5,6.7-8.8,6.7-132.9c0-96-1.1-130.4-4.2-133.6c-6-6-259.8-6-265.8,0c-3.2,3.2-4.2,37.6-4.2,133.6
		c0,119.2,0.4,129.4,6.3,132.5C194.1,10406.3,437.7,10406.7,446.8,10401.7z M763.2,10401.7c6.3-3.5,6.7-8.8,6.7-132.9
		c0-96-1.1-130.4-4.2-133.6c-6-6-259.8-6-265.8,0c-3.2,3.2-4.2,37.6-4.2,133.6c0,119.2,0.4,129.4,6.3,132.5
		C510.5,10406.3,754.1,10406.7,763.2,10401.7z M1079.6,10401.7c6.3-3.5,6.7-8.8,6.7-132.9c0-96-1.1-130.4-4.2-133.6
		c-6-6-259.8-6-265.8,0c-3.2,3.2-4.2,37.3-4.2,131.5c0,111.1,0.7,128.3,5.6,132.9c4.6,4.9,21.4,5.6,130.1,5.6
		C1027.3,10405.3,1075.1,10403.9,1079.6,10401.7z M1396.1,10401.7c6.3-3.5,6.7-8.8,6.7-132.9c0-96-1.1-130.4-4.2-133.6
		c-6-6-259.8-6-265.8,0c-3.2,3.2-4.2,37.3-4.2,131.5c0,111.1,0.7,128.3,5.6,132.9c4.6,4.9,21.4,5.6,130.1,5.6
		C1343.7,10405.3,1391.5,10403.9,1396.1,10401.7z M1714.9,10401c6-6,6-259.8,0-265.8s-259.8-6-265.8,0c-3.2,3.2-4.2,37.3-4.2,131.5
		c0,111.1,0.7,128.3,5.6,132.9c4.6,4.9,21.8,5.6,132.9,5.6C1677.7,10405.3,1711.8,10404.2,1714.9,10401z M2031.3,10401
		c6-6,6-259.8,0-265.8s-259.8-6-265.8,0c-3.2,3.2-4.2,37.3-4.2,131.5c0,111.1,0.7,128.3,5.6,132.9c4.6,4.9,21.8,5.6,132.9,5.6
		C1994.1,10405.3,2028.2,10404.2,2031.3,10401z M2347.7,10401c6-6,6-259.8,0-265.8s-259.8-6-265.8,0c-3.2,3.2-4.2,37.3-4.2,131.5
		c0,111.1,0.7,128.3,5.6,132.9c4.6,4.9,21.8,5.6,132.9,5.6C2310.5,10405.3,2344.6,10404.2,2347.7,10401z M2664.1,10401
		c6-6,6-259.8,0-265.8s-259.8-6-265.8,0c-3.2,3.2-4.2,37.3-4.2,131.5c0,111.1,0.7,128.3,5.6,132.9c4.6,4.9,21.8,5.6,132.9,5.6
		C2626.9,10405.3,2661,10404.2,2664.1,10401z M2980.5,10401c6-6,6-259.8,0-265.8s-259.8-6-265.8,0c-3.2,3.2-4.2,37.3-4.2,131.5
		c0,111.1,0.7,128.3,5.6,132.9c4.6,4.9,21.8,5.6,132.9,5.6C2943.3,10405.3,2977.4,10404.2,2980.5,10401z M3297,10401
		c6-6,6-259.8,0-265.8c-3.2-3.2-37.6-4.2-133.6-4.2c-124.1,0-129.4,0.4-132.9,6.7c-2.1,4.6-3.5,52.4-3.5,131.8
		c0,108.6,0.7,125.5,5.6,130.1c4.6,4.9,21.8,5.6,132.9,5.6C3259.7,10405.3,3293.8,10404.2,3297,10401z M3613.4,10401
		c6-6,6-259.8,0-265.8c-3.2-3.2-37.6-4.2-133.6-4.2c-124.1,0-129.4,0.4-132.9,6.7c-2.1,4.6-3.5,52.4-3.5,131.8
		c0,108.6,0.7,125.5,5.6,130.1c4.6,4.9,21.8,5.6,132.9,5.6C3576.1,10405.3,3610.2,10404.2,3613.4,10401z M3929.8,10401
		c6-6,6-259.8,0-265.8c-3.2-3.2-37.6-4.2-133.6-4.2c-124.1,0-129.4,0.4-132.9,6.7c-2.1,4.6-3.5,52.4-3.5,131.8
		c0,108.6,0.7,125.5,5.6,130.1c4.6,4.9,21.8,5.6,132.9,5.6C3892.5,10405.3,3926.6,10404.2,3929.8,10401z M4246.2,10401
		c6-6,6-259.8,0-265.8c-3.2-3.2-37.6-4.2-133.6-4.2c-124.1,0-129.4,0.4-132.9,6.7c-2.1,4.6-3.5,52.4-3.5,131.8
		c0,108.6,0.7,125.5,5.6,130.1c4.6,4.9,21.8,5.6,132.9,5.6C4208.9,10405.3,4243,10404.2,4246.2,10401z M446.8,10085.3
		c6.3-3.5,6.7-8.8,6.7-132.9c0-96-1.1-130.4-4.2-133.6c-6-6-259.8-6-265.8,0c-3.2,3.2-4.2,37.6-4.2,133.6
		c0,119.2,0.4,129.4,6.3,132.5C194.1,10089.9,437.7,10090.3,446.8,10085.3z M763.2,10085.3c6.3-3.5,6.7-8.8,6.7-132.9
		c0-96-1.1-130.4-4.2-133.6c-6-6-259.8-6-265.8,0c-3.2,3.2-4.2,37.6-4.2,133.6c0,119.2,0.4,129.4,6.3,132.5
		C510.5,10089.9,754.1,10090.3,763.2,10085.3z M1079.6,10085.3c6.3-3.5,6.7-8.8,6.7-132.9c0-96-1.1-130.4-4.2-133.6
		c-6-6-259.8-6-265.8,0c-3.2,3.2-4.2,37.3-4.2,131.5c0,111.1,0.7,128.3,5.6,132.9c4.6,4.9,21.4,5.6,130.1,5.6
		C1027.3,10088.9,1075.1,10087.4,1079.6,10085.3z M1396.1,10085.3c6.3-3.5,6.7-8.8,6.7-132.9c0-96-1.1-130.4-4.2-133.6
		c-6-6-259.8-6-265.8,0c-3.2,3.2-4.2,37.3-4.2,131.5c0,111.1,0.7,128.3,5.6,132.9c4.6,4.9,21.4,5.6,130.1,5.6
		C1343.7,10088.9,1391.5,10087.4,1396.1,10085.3z M1712.5,10085.3c6.3-3.5,6.7-8.8,6.7-132.9c0-96-1.1-130.4-4.2-133.6
		c-6-6-259.8-6-265.8,0c-3.2,3.2-4.2,37.3-4.2,131.5c0,111.1,0.7,128.3,5.6,132.9c4.6,4.9,21.4,5.6,130.1,5.6
		C1660.1,10088.9,1707.9,10087.4,1712.5,10085.3z M2028.9,10085.3c6.3-3.5,6.7-8.8,6.7-132.9c0-96-1.1-130.4-4.2-133.6
		c-6-6-259.8-6-265.8,0c-3.2,3.2-4.2,37.3-4.2,131.5c0,111.1,0.7,128.3,5.6,132.9c4.6,4.9,21.4,5.6,130.1,5.6
		C1976.5,10088.9,2024.3,10087.4,2028.9,10085.3z M2347.7,10084.6c6-6,6-259.8,0-265.8s-259.8-6-265.8,0
		c-3.2,3.2-4.2,37.3-4.2,131.5c0,111.1,0.7,128.3,5.6,132.9c4.6,4.9,21.8,5.6,132.9,5.6
		C2310.5,10088.9,2344.6,10087.8,2347.7,10084.6z M2664.1,10084.6c6-6,6-259.8,0-265.8s-259.8-6-265.8,0
		c-3.2,3.2-4.2,37.3-4.2,131.5c0,111.1,0.7,128.3,5.6,132.9c4.6,4.9,21.8,5.6,132.9,5.6C2626.9,10088.9,2661,10087.8,2664.1,10084.6
		z M2980.5,10084.6c6-6,6-259.8,0-265.8s-259.8-6-265.8,0c-3.2,3.2-4.2,37.3-4.2,131.5c0,111.1,0.7,128.3,5.6,132.9
		c4.6,4.9,21.8,5.6,132.9,5.6C2943.3,10088.9,2977.4,10087.8,2980.5,10084.6z M3297,10084.6c6-6,6-259.8,0-265.8
		c-3.2-3.2-37.6-4.2-133.6-4.2c-124.1,0-129.4,0.4-132.9,6.7c-2.1,4.6-3.5,52.4-3.5,131.8c0,108.6,0.7,125.5,5.6,130.1
		c4.6,4.9,21.8,5.6,132.9,5.6C3259.7,10088.9,3293.8,10087.8,3297,10084.6z M3613.4,10084.6c6-6,6-259.8,0-265.8
		c-3.2-3.2-37.6-4.2-133.6-4.2c-124.1,0-129.4,0.4-132.9,6.7c-2.1,4.6-3.5,52.4-3.5,131.8c0,108.6,0.7,125.5,5.6,130.1
		c4.6,4.9,21.8,5.6,132.9,5.6C3576.1,10088.9,3610.2,10087.8,3613.4,10084.6z M3929.8,10084.6c6-6,6-259.8,0-265.8
		c-3.2-3.2-37.6-4.2-133.6-4.2c-124.1,0-129.4,0.4-132.9,6.7c-2.1,4.6-3.5,52.4-3.5,131.8c0,108.6,0.7,125.5,5.6,130.1
		c4.6,4.9,21.8,5.6,132.9,5.6C3892.5,10088.9,3926.6,10087.8,3929.8,10084.6z M4246.2,10084.6c6-6,6-259.8,0-265.8
		c-3.2-3.2-37.6-4.2-133.6-4.2c-124.1,0-129.4,0.4-132.9,6.7c-2.1,4.6-3.5,52.4-3.5,131.8c0,108.6,0.7,125.5,5.6,130.1
		c4.6,4.9,21.8,5.6,132.9,5.6C4208.9,10088.9,4243,10087.8,4246.2,10084.6z M446.8,9768.9c6.3-3.5,6.7-8.8,6.7-132.9
		c0-96-1.1-130.4-4.2-133.6c-6-6-259.8-6-265.8,0c-3.2,3.2-4.2,37.6-4.2,133.6c0,119.2,0.4,129.4,6.3,132.5
		C194.1,9773.5,437.7,9773.9,446.8,9768.9z M763.2,9768.9c6.3-3.5,6.7-8.8,6.7-132.9c0-96-1.1-130.4-4.2-133.6c-6-6-259.8-6-265.8,0
		c-3.2,3.2-4.2,37.6-4.2,133.6c0,119.2,0.4,129.4,6.3,132.5C510.5,9773.5,754.1,9773.9,763.2,9768.9z M1079.6,9768.9
		c6.3-3.5,6.7-8.8,6.7-132.9c0-96-1.1-130.4-4.2-133.6c-6-6-259.8-6-265.8,0c-3.2,3.2-4.2,37.3-4.2,131.5
		c0,111.1,0.7,128.3,5.6,132.9c4.6,4.9,21.4,5.6,130.1,5.6C1027.3,9772.4,1075.1,9771,1079.6,9768.9z M1396.1,9768.9
		c6.3-3.5,6.7-8.8,6.7-132.9c0-96-1.1-130.4-4.2-133.6c-6-6-259.8-6-265.8,0c-3.2,3.2-4.2,37.3-4.2,131.5
		c0,111.1,0.7,128.3,5.6,132.9c4.6,4.9,21.4,5.6,130.1,5.6C1343.7,9772.4,1391.5,9771,1396.1,9768.9z M1712.5,9768.9
		c6.3-3.5,6.7-8.8,6.7-132.9c0-96-1.1-130.4-4.2-133.6c-6-6-259.8-6-265.8,0c-3.2,3.2-4.2,37.3-4.2,131.5
		c0,111.1,0.7,128.3,5.6,132.9c4.6,4.9,21.4,5.6,130.1,5.6C1660.1,9772.4,1707.9,9771,1712.5,9768.9z M2028.9,9768.9
		c6.3-3.5,6.7-8.8,6.7-132.9c0-96-1.1-130.4-4.2-133.6c-6-6-259.8-6-265.8,0c-3.2,3.2-4.2,37.3-4.2,131.5
		c0,111.1,0.7,128.3,5.6,132.9c4.6,4.9,21.4,5.6,130.1,5.6C1976.5,9772.4,2024.3,9771,2028.9,9768.9z M2345.3,9768.9
		c6.3-3.5,6.7-8.8,6.7-132.9c0-96-1.1-130.4-4.2-133.6c-6-6-259.8-6-265.8,0c-3.2,3.2-4.2,37.3-4.2,131.5
		c0,111.1,0.7,128.3,5.6,132.9c4.6,4.9,21.4,5.6,130.1,5.6C2292.9,9772.4,2340.7,9771,2345.3,9768.9z M2661.7,9768.9
		c6.3-3.5,6.7-8.8,6.7-132.9c0-96-1.1-130.4-4.2-133.6c-6-6-259.8-6-265.8,0c-3.2,3.2-4.2,37.3-4.2,131.5
		c0,111.1,0.7,128.3,5.6,132.9c4.6,4.9,21.4,5.6,130.1,5.6C2609.3,9772.4,2657.1,9771,2661.7,9768.9z M2978.1,9768.9
		c6.3-3.5,6.7-8.8,6.7-132.9c0-96-1.1-130.4-4.2-133.6c-6-6-259.8-6-265.8,0c-3.2,3.2-4.2,37.3-4.2,131.5
		c0,111.1,0.7,128.3,5.6,132.9c4.6,4.9,21.4,5.6,130.1,5.6C2925.7,9772.4,2973.5,9771,2978.1,9768.9z M3294.5,9768.9
		c6.3-3.5,6.7-8.8,6.7-132.9c0-96-1.1-130.4-4.2-133.6c-6-6-259.8-6-265.8,0c-3.2,3.2-4.2,37.3-4.2,131.5
		c0,111.1,0.7,128.3,5.6,132.9c4.6,4.9,21.4,5.6,130.1,5.6C3242.1,9772.4,3289.9,9771,3294.5,9768.9z M3613.4,9768.2
		c6-6,6-259.8,0-265.8c-3.2-3.2-37.6-4.2-133.6-4.2c-124.1,0-129.4,0.4-132.9,6.7c-2.1,4.6-3.5,52.4-3.5,131.8
		c0,108.6,0.7,125.5,5.6,130.1c4.6,4.9,21.8,5.6,132.9,5.6C3576.1,9772.4,3610.2,9771.4,3613.4,9768.2z M3929.8,9768.2
		c6-6,6-259.8,0-265.8c-3.2-3.2-37.6-4.2-133.6-4.2c-124.1,0-129.4,0.4-132.9,6.7c-2.1,4.6-3.5,52.4-3.5,131.8
		c0,108.6,0.7,125.5,5.6,130.1c4.6,4.9,21.8,5.6,132.9,5.6C3892.5,9772.4,3926.6,9771.4,3929.8,9768.2z M4246.2,9768.2
		c6-6,6-259.8,0-265.8c-3.2-3.2-37.6-4.2-133.6-4.2c-124.1,0-129.4,0.4-132.9,6.7c-2.1,4.6-3.5,52.4-3.5,131.8
		c0,108.6,0.7,125.5,5.6,130.1c4.6,4.9,21.8,5.6,132.9,5.6C4208.9,9772.4,4243,9771.4,4246.2,9768.2z M446.8,9452.5
		c6.3-3.5,6.7-8.8,6.7-132.9c0-96-1.1-130.4-4.2-133.6c-6-6-259.8-6-265.8,0c-3.2,3.2-4.2,37.3-4.2,131.5
		c0,111.1,0.7,128.3,5.6,132.9c4.6,4.9,21.4,5.6,130.1,5.6C394.5,9456,442.3,9454.6,446.8,9452.5z M763.2,9452.5
		c6.3-3.5,6.7-8.8,6.7-132.9c0-96-1.1-130.4-4.2-133.6c-6-6-259.8-6-265.8,0c-3.2,3.2-4.2,37.3-4.2,131.5
		c0,111.1,0.7,128.3,5.6,132.9c4.6,4.9,21.4,5.6,130.1,5.6C710.9,9456,758.7,9454.6,763.2,9452.5z M1079.6,9452.5
		c6.3-3.5,6.7-8.8,6.7-132.9c0-96-1.1-130.4-4.2-133.6c-6-6-259.8-6-265.8,0c-3.2,3.2-4.2,37.3-4.2,131.5
		c0,111.1,0.7,128.3,5.6,132.9c4.6,4.9,21.4,5.6,130.1,5.6C1027.3,9456,1075.1,9454.6,1079.6,9452.5z M1396.1,9452.5
		c6.3-3.5,6.7-8.8,6.7-132.9c0-96-1.1-130.4-4.2-133.6c-6-6-259.8-6-265.8,0c-3.2,3.2-4.2,37.3-4.2,131.5
		c0,111.1,0.7,128.3,5.6,132.9c4.6,4.9,21.4,5.6,130.1,5.6C1343.7,9456,1391.5,9454.6,1396.1,9452.5z M1712.5,9452.5
		c6.3-3.5,6.7-8.8,6.7-132.9c0-96-1.1-130.4-4.2-133.6c-6-6-259.8-6-265.8,0c-3.2,3.2-4.2,37.3-4.2,131.5
		c0,111.1,0.7,128.3,5.6,132.9c4.6,4.9,21.4,5.6,130.1,5.6C1660.1,9456,1707.9,9454.6,1712.5,9452.5z M2028.9,9452.5
		c6.3-3.5,6.7-8.8,6.7-132.9c0-96-1.1-130.4-4.2-133.6c-6-6-259.8-6-265.8,0c-3.2,3.2-4.2,37.3-4.2,131.5
		c0,111.1,0.7,128.3,5.6,132.9c4.6,4.9,21.4,5.6,130.1,5.6C1976.5,9456,2024.3,9454.6,2028.9,9452.5z M2345.3,9452.5
		c6.3-3.5,6.7-8.8,6.7-132.9c0-96-1.1-130.4-4.2-133.6c-6-6-259.8-6-265.8,0c-3.2,3.2-4.2,37.3-4.2,131.5
		c0,111.1,0.7,128.3,5.6,132.9c4.6,4.9,21.4,5.6,130.1,5.6C2292.9,9456,2340.7,9454.6,2345.3,9452.5z M2661.7,9452.5
		c6.3-3.5,6.7-8.8,6.7-132.9c0-96-1.1-130.4-4.2-133.6c-6-6-259.8-6-265.8,0c-3.2,3.2-4.2,37.3-4.2,131.5
		c0,111.1,0.7,128.3,5.6,132.9c4.6,4.9,21.4,5.6,130.1,5.6C2609.3,9456,2657.1,9454.6,2661.7,9452.5z M2978.1,9452.5
		c6.3-3.5,6.7-8.8,6.7-132.9c0-96-1.1-130.4-4.2-133.6c-6-6-259.8-6-265.8,0c-3.2,3.2-4.2,37.3-4.2,131.5
		c0,111.1,0.7,128.3,5.6,132.9c4.6,4.9,21.4,5.6,130.1,5.6C2925.7,9456,2973.5,9454.6,2978.1,9452.5z M3294.5,9452.5
		c6.3-3.5,6.7-8.8,6.7-132.9c0-96-1.1-130.4-4.2-133.6c-6-6-259.8-6-265.8,0c-3.2,3.2-4.2,37.3-4.2,131.5
		c0,111.1,0.7,128.3,5.6,132.9c4.6,4.9,21.4,5.6,130.1,5.6C3242.1,9456,3289.9,9454.6,3294.5,9452.5z M3610.9,9452.5
		c6.3-3.5,6.7-8.8,6.7-132.9c0-96-1.1-130.4-4.2-133.6s-37.6-4.2-133.6-4.2c-124.1,0-129.4,0.4-132.9,6.7
		c-2.1,4.6-3.5,52.4-3.5,131.8c0,108.6,0.7,125.5,5.6,130.1c4.6,4.9,21.4,5.6,130.1,5.6C3558.5,9456,3606.3,9454.6,3610.9,9452.5z
		 M3927.3,9452.5c6.3-3.5,6.7-8.8,6.7-132.9c0-96-1.1-130.4-4.2-133.6s-37.6-4.2-133.6-4.2c-124.1,0-129.4,0.4-132.9,6.7
		c-2.1,4.6-3.5,52.4-3.5,131.8c0,108.6,0.7,125.5,5.6,130.1c4.6,4.9,21.4,5.6,130.1,5.6C3874.9,9456,3922.7,9454.6,3927.3,9452.5z
		 M4246.2,9451.8c6-6,6-259.8,0-265.8c-3.2-3.2-37.6-4.2-133.6-4.2c-124.1,0-129.4,0.4-132.9,6.7c-2.1,4.6-3.5,52.4-3.5,131.8
		c0,108.6,0.7,125.5,5.6,130.1c4.6,4.9,21.8,5.6,132.9,5.6C4208.9,9456,4243,9455,4246.2,9451.8z M446.8,9136.1
		c6.3-3.5,6.7-8.8,6.7-132.9c0-96-1.1-130.4-4.2-133.6c-6-6-259.8-6-265.8,0c-3.2,3.2-4.2,37.3-4.2,131.5
		c0,111.1,0.7,128.3,5.6,132.9c4.6,4.9,21.4,5.6,130.1,5.6C394.5,9139.6,442.3,9138.2,446.8,9136.1z M763.2,9136.1
		c6.3-3.5,6.7-8.8,6.7-132.9c0-96-1.1-130.4-4.2-133.6c-6-6-259.8-6-265.8,0c-3.2,3.2-4.2,37.3-4.2,131.5
		c0,111.1,0.7,128.3,5.6,132.9c4.6,4.9,21.4,5.6,130.1,5.6C710.9,9139.6,758.7,9138.2,763.2,9136.1z M1079.6,9136.1
		c6.3-3.5,6.7-8.8,6.7-132.9c0-96-1.1-130.4-4.2-133.6c-6-6-259.8-6-265.8,0c-3.2,3.2-4.2,37.3-4.2,131.5
		c0,111.1,0.7,128.3,5.6,132.9c4.6,4.9,21.4,5.6,130.1,5.6C1027.3,9139.6,1075.1,9138.2,1079.6,9136.1z M1396.1,9136.1
		c6.3-3.5,6.7-8.8,6.7-132.9c0-96-1.1-130.4-4.2-133.6c-6-6-259.8-6-265.8,0c-3.2,3.2-4.2,37.3-4.2,131.5
		c0,111.1,0.7,128.3,5.6,132.9c4.6,4.9,21.4,5.6,130.1,5.6C1343.7,9139.6,1391.5,9138.2,1396.1,9136.1z M1712.5,9136.1
		c6.3-3.5,6.7-8.8,6.7-132.9c0-96-1.1-130.4-4.2-133.6c-6-6-259.8-6-265.8,0c-3.2,3.2-4.2,37.3-4.2,131.5
		c0,111.1,0.7,128.3,5.6,132.9c4.6,4.9,21.4,5.6,130.1,5.6C1660.1,9139.6,1707.9,9138.2,1712.5,9136.1z M2028.9,9136.1
		c6.3-3.5,6.7-8.8,6.7-132.9c0-96-1.1-130.4-4.2-133.6c-6-6-259.8-6-265.8,0c-3.2,3.2-4.2,37.3-4.2,131.5
		c0,111.1,0.7,128.3,5.6,132.9c4.6,4.9,21.4,5.6,130.1,5.6C1976.5,9139.6,2024.3,9138.2,2028.9,9136.1z M2345.3,9136.1
		c6.3-3.5,6.7-8.8,6.7-132.9c0-96-1.1-130.4-4.2-133.6c-6-6-259.8-6-265.8,0c-3.2,3.2-4.2,37.3-4.2,131.5
		c0,111.1,0.7,128.3,5.6,132.9c4.6,4.9,21.4,5.6,130.1,5.6C2292.9,9139.6,2340.7,9138.2,2345.3,9136.1z M2661.7,9136.1
		c6.3-3.5,6.7-8.8,6.7-132.9c0-96-1.1-130.4-4.2-133.6c-6-6-259.8-6-265.8,0c-3.2,3.2-4.2,37.3-4.2,131.5
		c0,111.1,0.7,128.3,5.6,132.9c4.6,4.9,21.4,5.6,130.1,5.6C2609.3,9139.6,2657.1,9138.2,2661.7,9136.1z M2978.1,9136.1
		c6.3-3.5,6.7-8.8,6.7-132.9c0-96-1.1-130.4-4.2-133.6c-6-6-259.8-6-265.8,0c-3.2,3.2-4.2,37.3-4.2,131.5
		c0,111.1,0.7,128.3,5.6,132.9c4.6,4.9,21.4,5.6,130.1,5.6C2925.7,9139.6,2973.5,9138.2,2978.1,9136.1z M3294.5,9136.1
		c6.3-3.5,6.7-8.8,6.7-132.9c0-96-1.1-130.4-4.2-133.6c-6-6-259.8-6-265.8,0c-3.2,3.2-4.2,37.3-4.2,131.5
		c0,111.1,0.7,128.3,5.6,132.9c4.6,4.9,21.4,5.6,130.1,5.6C3242.1,9139.6,3289.9,9138.2,3294.5,9136.1z M3610.9,9136.1
		c6.3-3.5,6.7-8.8,6.7-132.9c0-96-1.1-130.4-4.2-133.6c-6-6-259.8-6-265.8,0c-3.2,3.2-4.2,37.3-4.2,131.5
		c0,111.1,0.7,128.3,5.6,132.9c4.6,4.9,21.4,5.6,130.1,5.6C3558.5,9139.6,3606.3,9138.2,3610.9,9136.1z M3927.3,9136.1
		c6.3-3.5,6.7-8.8,6.7-132.9c0-96-1.1-130.4-4.2-133.6s-37.6-4.2-133.6-4.2c-124.1,0-129.4,0.4-132.9,6.7
		c-2.1,4.6-3.5,52.4-3.5,131.8c0,108.6,0.7,125.5,5.6,130.1c4.6,4.9,21.4,5.6,130.1,5.6C3874.9,9139.6,3922.7,9138.2,3927.3,9136.1z
		 M4243.7,9136.1c6.3-3.5,6.7-8.8,6.7-132.9c0-96-1.1-130.4-4.2-133.6s-37.6-4.2-133.6-4.2c-124.1,0-129.4,0.4-132.9,6.7
		c-2.1,4.6-3.5,52.4-3.5,131.8c0,108.6,0.7,125.5,5.6,130.1c4.6,4.9,21.4,5.6,130.1,5.6C4191.3,9139.6,4239.1,9138.2,4243.7,9136.1z
		 M446.8,8819.7c6.3-3.5,6.7-8.8,6.7-132.9c0-96-1.1-130.4-4.2-133.6c-6-6-259.8-6-265.8,0c-3.2,3.2-4.2,37.3-4.2,131.5
		c0,111.1,0.7,128.3,5.6,132.9c4.6,4.9,21.4,5.6,130.1,5.6C394.5,8823.2,442.3,8821.8,446.8,8819.7z M763.2,8819.7
		c6.3-3.5,6.7-8.8,6.7-132.9c0-96-1.1-130.4-4.2-133.6c-6-6-259.8-6-265.8,0c-3.2,3.2-4.2,37.3-4.2,131.5
		c0,111.1,0.7,128.3,5.6,132.9c4.6,4.9,21.4,5.6,130.1,5.6C710.9,8823.2,758.7,8821.8,763.2,8819.7z M1079.6,8819.7
		c6.3-3.5,6.7-8.8,6.7-132.9c0-96-1.1-130.4-4.2-133.6c-6-6-259.8-6-265.8,0c-3.2,3.2-4.2,37.3-4.2,131.5
		c0,111.1,0.7,128.3,5.6,132.9c4.6,4.9,21.4,5.6,130.1,5.6C1027.3,8823.2,1075.1,8821.8,1079.6,8819.7z M1396.1,8819.7
		c6.3-3.5,6.7-8.8,6.7-132.9c0-96-1.1-130.4-4.2-133.6c-6-6-259.8-6-265.8,0c-3.2,3.2-4.2,37.3-4.2,131.5
		c0,111.1,0.7,128.3,5.6,132.9c4.6,4.9,21.4,5.6,130.1,5.6C1343.7,8823.2,1391.5,8821.8,1396.1,8819.7z M1712.5,8819.7
		c6.3-3.5,6.7-8.8,6.7-132.9c0-96-1.1-130.4-4.2-133.6c-6-6-259.8-6-265.8,0c-3.2,3.2-4.2,37.3-4.2,131.5
		c0,111.1,0.7,128.3,5.6,132.9c4.6,4.9,21.4,5.6,130.1,5.6C1660.1,8823.2,1707.9,8821.8,1712.5,8819.7z M2028.9,8819.7
		c6.3-3.5,6.7-8.8,6.7-132.9c0-96-1.1-130.4-4.2-133.6c-6-6-259.8-6-265.8,0c-3.2,3.2-4.2,37.3-4.2,131.5
		c0,111.1,0.7,128.3,5.6,132.9c4.6,4.9,21.4,5.6,130.1,5.6C1976.5,8823.2,2024.3,8821.8,2028.9,8819.7z M2345.3,8819.7
		c6.3-3.5,6.7-8.8,6.7-132.9c0-96-1.1-130.4-4.2-133.6c-6-6-259.8-6-265.8,0c-3.2,3.2-4.2,37.3-4.2,131.5
		c0,111.1,0.7,128.3,5.6,132.9c4.6,4.9,21.4,5.6,130.1,5.6C2292.9,8823.2,2340.7,8821.8,2345.3,8819.7z M2661.7,8819.7
		c6.3-3.5,6.7-8.8,6.7-132.9c0-96-1.1-130.4-4.2-133.6c-6-6-259.8-6-265.8,0c-3.2,3.2-4.2,37.3-4.2,131.5
		c0,111.1,0.7,128.3,5.6,132.9c4.6,4.9,21.4,5.6,130.1,5.6C2609.3,8823.2,2657.1,8821.8,2661.7,8819.7z M2978.1,8819.7
		c6.3-3.5,6.7-8.8,6.7-132.9c0-96-1.1-130.4-4.2-133.6c-6-6-259.8-6-265.8,0c-3.2,3.2-4.2,37.3-4.2,131.5
		c0,111.1,0.7,128.3,5.6,132.9c4.6,4.9,21.4,5.6,130.1,5.6C2925.7,8823.2,2973.5,8821.8,2978.1,8819.7z M3294.5,8819.7
		c6.3-3.5,6.7-8.8,6.7-132.9c0-96-1.1-130.4-4.2-133.6c-6-6-259.8-6-265.8,0c-3.2,3.2-4.2,37.3-4.2,131.5
		c0,111.1,0.7,128.3,5.6,132.9c4.6,4.9,21.4,5.6,130.1,5.6C3242.1,8823.2,3289.9,8821.8,3294.5,8819.7z M3610.9,8819.7
		c6.3-3.5,6.7-8.8,6.7-132.9c0-96-1.1-130.4-4.2-133.6c-6-6-259.8-6-265.8,0c-3.2,3.2-4.2,37.3-4.2,131.5
		c0,111.1,0.7,128.3,5.6,132.9c4.6,4.9,21.4,5.6,130.1,5.6C3558.5,8823.2,3606.3,8821.8,3610.9,8819.7z M3927.3,8819.7
		c6.3-3.5,6.7-8.8,6.7-132.9c0-96-1.1-130.4-4.2-133.6s-37.6-4.2-133.6-4.2c-124.1,0-129.4,0.4-132.9,6.7
		c-2.1,4.6-3.5,52.4-3.5,131.8c0,108.6,0.7,125.5,5.6,130.1c4.6,4.9,21.4,5.6,130.1,5.6C3874.9,8823.2,3922.7,8821.8,3927.3,8819.7z
		 M4243.7,8819.7c6.3-3.5,6.7-8.8,6.7-132.9c0-96-1.1-130.4-4.2-133.6s-37.6-4.2-133.6-4.2c-124.1,0-129.4,0.4-132.9,6.7
		c-2.1,4.6-3.5,52.4-3.5,131.8c0,108.6,0.7,125.5,5.6,130.1c4.6,4.9,21.4,5.6,130.1,5.6C4191.3,8823.2,4239.1,8821.8,4243.7,8819.7z
		"/>
</g>
</svg>
