<?xml version="1.0" encoding="utf-8"?>
<!-- Generator: Adobe Illustrator 25.1.0, SVG Export Plug-In . SVG Version: 6.00 Build 0)  -->
<svg version="1.1" id="Layer_1" xmlns="http://www.w3.org/2000/svg" xmlns:xlink="http://www.w3.org/1999/xlink" x="0px" y="0px"
	 viewBox="0 0 83.1 83.3" style="enable-background:new 0 0 83.1 83.3;" xml:space="preserve">
<style type="text/css">
	.st0{fill:#070608;}
</style>
<path class="st0" d="M82.7,36.6c0,0.8-0.4,1.5-0.4,2.3c-3.5,12.7-16.1,20-28.8,16.9c-12.7-3.5-20-16.1-16.9-28.8
	c3.5-12.7,16.1-20,28.8-16.9c1.9,0.4,3.5,1.2,5,1.9c-5-5-11.1-8.8-18.4-10.7C30.1-4.4,7.5,9,1.4,30.9c-5.8,22.3,7.3,45.3,29.6,51
	s44.9-7.3,51-29.6C83.1,47.4,83.5,42,82.7,36.6z"/>
</svg>
