<?xml version="1.0" encoding="utf-8"?>
<!-- Generator: Adobe Illustrator 25.1.0, SVG Export Plug-In . SVG Version: 6.00 Build 0)  -->
<svg version="1.1" id="Layer_1" xmlns="http://www.w3.org/2000/svg" xmlns:xlink="http://www.w3.org/1999/xlink" x="0px" y="0px"
	 viewBox="0 0 97.7 85.9" style="enable-background:new 0 0 97.7 85.9;" xml:space="preserve">
<style type="text/css">
	.st0{fill:#000;}
	.st1{opacity:0.2;fill:#FEE6D4;enable-background:new    ;}
	.st2{fill:#FEE6D4;}
	.st3{opacity:0.2;fill:#E55625;enable-background:new    ;}
	.st4{opacity:0.8;}
	.st5{opacity:0.3;fill:#010101;enable-background:new    ;}
</style>
<path class="st0" d="M39.4,1.2C11.7,7.1-4.8,34.4,1.3,57c6.1,22.7,30.6,33,56.1,27.5c25.5-5.6,43.6-25,39.8-48.2
	C93.4,13.2,67.1-4.9,39.4,1.2z"/>
<path class="st1" d="M44.1,2.7C50.7,1.2,57.3,1,63.5,1.8c-7.5-2-15.8-2.4-24.1-0.6c-23,4.9-38.3,24.5-39.3,44
	C4.5,25.7,20.8,7.7,44.1,2.7z"/>
<path class="st0" d="M39.4,1.2C11.7,7.1-4.8,34.4,1.3,57c6.1,22.7,30.6,33,56.1,27.5c25.5-5.6,43.6-25,39.8-48.2
	C93.4,13.2,67.1-4.9,39.4,1.2z"/>
<path class="st1" d="M44.1,2.7C50.7,1.2,57.3,1,63.5,1.8c-7.5-2-15.8-2.4-24.1-0.6c-23,4.9-38.3,24.5-39.3,44
	C4.5,25.7,20.8,7.7,44.1,2.7z"/>
<path class="st2" d="M43.7,6.6c-23.4,5-37.2,28.1-32.1,47.3c5.1,19.3,25.9,28,47.4,23.5c21.5-4.7,36.7-21.2,33.5-40.9
	C89.2,16.9,67,1.5,43.7,6.6z"/>
<path class="st3" d="M68.1,72.1c-21.5,4.6-42.4-4.9-47.8-25.4c-2.8-10.7-0.4-22.5,5.9-32C14,24.4,7.9,40.2,11.6,53.9
	c5.1,19.3,25.9,28,47.4,23.5c7.4-1.6,14-4.6,19.4-8.7C75.2,70.1,71.7,71.3,68.1,72.1z"/>
<g class="st4">
	<path class="st5" d="M11.7,66c-0.6,0.5-0.7,1.5-0.3,2.1c0.4,0.7,1.2,0.7,1.8,0.3c0.6-0.4,0.8-1.2,0.4-1.9
		C13.2,65.9,12.3,65.6,11.7,66z"/>
	<path class="st5" d="M4.8,41.8c0.5-0.4,0.5-1.1,0.1-1.7c-0.5-0.5-1.3-0.7-1.8-0.2s-0.4,1.3,0.1,1.8C3.6,42.3,4.3,42.3,4.8,41.8z"/>
	<path class="st5" d="M4.1,36.7c0.3-0.3,0.3-0.7,0-1S3.3,35.3,3,35.6c-0.3,0.3-0.2,0.8,0.1,1.1S3.9,37,4.1,36.7z"/>
</g>
</svg>
