<?xml version="1.0" encoding="utf-8"?>
<!-- Generator: Adobe Illustrator 25.1.0, SVG Export Plug-In . SVG Version: 6.00 Build 0)  -->
<svg version="1.1" id="Layer_1" xmlns="http://www.w3.org/2000/svg" xmlns:xlink="http://www.w3.org/1999/xlink" x="0px" y="0px"
	 viewBox="0 0 97.7 85.9" style="enable-background:new 0 0 97.7 85.9;" xml:space="preserve">
<style type="text/css">
	.st0{fill:#010101;}
	.st1{fill:#FFFFFF;}
</style>
<path class="st0" d="M69.3,29.6c0.1,0.3,0.2,0.5,0.2,0.8c1,4.4-1.8,8.7-6.3,9.7c-4.4,1-8.7-1.8-9.7-6.3c-1-4.4,1.8-8.7,6.3-9.7
	c0.6-0.1,1.3-0.2,1.9-0.2c-2.3-0.7-4.8-0.9-7.4-0.3c-7.8,1.7-12.7,9.3-11,17.1c1.7,7.8,9.3,12.7,17.1,11c7.8-1.7,12.7-9.3,11-17.1
	C71,32.8,70.3,31.1,69.3,29.6z"/>
<g>
	<path class="st1" d="M53.6,54.1c2.2-0.4,3.5-2.4,2.9-4.4c-0.6-2-2.8-3.3-4.9-2.8c-2.2,0.4-3.4,2.4-2.9,4.4
		C49.3,53.2,51.5,54.5,53.6,54.1z"/>
	<path class="st1" d="M48.8,56.2c0.7-0.1,1.1-0.7,0.9-1.4c-0.2-0.6-0.9-1-1.5-0.9c-0.7,0.1-1.1,0.7-0.9,1.4
		C47.4,55.9,48.1,56.3,48.8,56.2z"/>
</g>
</svg>
