<?xml version="1.0" encoding="utf-8"?>
<!-- Generator: Adobe Illustrator 25.1.0, SVG Export Plug-In . SVG Version: 6.00 Build 0)  -->
<svg version="1.1" id="Layer_1" xmlns="http://www.w3.org/2000/svg" xmlns:xlink="http://www.w3.org/1999/xlink" x="0px" y="0px"
	 viewBox="0 0 153.1 49" style="enable-background:new 0 0 153.1 49;" xml:space="preserve">
<style type="text/css">
	.st0{opacity:0.3;fill:#3C2415;enable-background:new    ;}
	.st1{fill:#3C2415;}
	.st2{fill:#FFDD00;}
	.st3{fill:#FFFFFF;}
	.st4{opacity:0.4;}
	.st5{opacity:0.3;fill:#010101;enable-background:new    ;}
</style>
<g>
	<path class="st0" d="M75.3,45.9c-1,0-2.1-0.1-3.2-0.3c-1-0.1-3.7-0.6-6.4-2.3l0,0l-0.1-0.1c-0.2-0.1-0.4-0.3-0.6-0.4l-0.1-0.1l0,0
		L64,42.1V42l-0.2-0.1c-0.1-0.1-0.3-0.3-0.5-0.5c-0.1-0.1-0.2-0.2-0.3-0.3c-0.3-0.3-0.6-0.7-0.8-1.1L62,39.7
		c-0.1-0.1-0.2-0.2-0.2-0.4l-0.1-0.2c-0.7-1.3-1.2-2.6-1.5-4.1c0-0.1-0.1-0.5-0.1-0.5c-0.2-1.3-0.3-2.7-0.3-4.3
		c0-0.1,0.4-16.2,0.5-19.1l0.1-2.4h14.2h14.3v2.5c0,0,0.2,19.4,0.2,20.9c0,4-1.3,7.4-3.7,9.9C82.8,44.6,79.4,45.9,75.3,45.9
		L75.3,45.9z"/>
	<g>
		<g>
			<g>
				<path class="st1" d="M73.1,43.7c-1,0-2.1-0.1-3.2-0.3c-1-0.1-3.7-0.6-6.4-2.3l0,0L63.4,41c-0.2-0.1-0.4-0.3-0.6-0.4l-0.1-0.1
					l0,0l-0.9-0.6v-0.1l-0.2-0.1c-0.1-0.1-0.3-0.3-0.5-0.5c-0.1-0.1-0.2-0.2-0.3-0.3c-0.3-0.3-0.6-0.7-0.8-1.1l-0.1-0.3
					c-0.1-0.1-0.2-0.2-0.2-0.4l-0.1-0.2c-0.7-1.3-1.2-2.6-1.5-4.1c0-0.1-0.1-0.5-0.1-0.5c-0.2-1.3-0.3-2.7-0.3-4.3
					c0-0.1,0.4-16.2,0.5-19.1V6.5h14.2h14.3V9c0,0,0.2,19.4,0.2,20.9c0,4-1.3,7.4-3.7,9.9C80.6,42.4,77.2,43.7,73.1,43.7L73.1,43.7z
					"/>
				<path class="st2" d="M84.1,9.1h-9.9l0.3,16.6c0.3,5.7-1.8,5.8-2.1,5.8c-0.3,0-1.5-0.3-2-2.1l0,0c-0.1-0.4-0.2-1-0.2-1.6
					l0.3-18.7h-9.8c-0.1,3.6-0.5,19.1-0.5,19.1c0,1.4,0.1,2.6,0.3,3.7c0,0.1,0,0.3,0.1,0.4c0.3,1.3,0.7,2.4,1.2,3.3
					c0,0.1,0.1,0.2,0.1,0.2c0.1,0.1,0.1,0.2,0.2,0.3c0,0.1,0.1,0.2,0.2,0.2c0.2,0.3,0.4,0.6,0.7,0.9c0.1,0.1,0.1,0.2,0.2,0.2
					c0.1,0.1,0.3,0.3,0.4,0.4c0.1,0.1,0.1,0.1,0.2,0.2c0.2,0.1,0.3,0.3,0.5,0.4c0.1,0.1,0.1,0.1,0.2,0.2l0,0l0,0
					c2.3,1.8,5,2.2,6,2.3c8.9,1.4,14.1-3.7,14-10.9C84.3,28.5,84.1,9.1,84.1,9.1z"/>
			</g>
		</g>
		<g>
			<path class="st3" d="M62,30c0,0,0.4-15.4,0.5-19.1l8-1.9h-9.8c-0.1,3.6-0.5,19.1-0.5,19.1c0,1.4,0.1,2.6,0.3,3.7
				c0,0.1,0,0.3,0.1,0.4c0.3,1.3,0.7,2.4,1.2,3.3c0,0.1,0.1,0.2,0.1,0.2c0.1,0.1,0.1,0.2,0.2,0.3c0,0.1,0.1,0.2,0.2,0.2
				c0.2,0.3,0.4,0.6,0.7,0.9c0.1,0.1,0.1,0.2,0.2,0.2c0.1,0.1,0.3,0.3,0.4,0.4c0.1,0.1,0.1,0.1,0.2,0.2c0.2,0.1,0.3,0.3,0.5,0.4
				c0.1,0.1,0.1,0.1,0.2,0.2l0,0C62.9,36.7,61.9,34,62,30z M76.1,11l8-1.9h-9.9l0.3,16.6c0.3,5.7-1.8,5.8-2.1,5.8
				c-0.3,0-1.5-0.3-2-2.1l0,0c0.7,3.6,3.6,4,3.9,4s2.5,0,2.1-5.8L76.1,11z"/>
		</g>
	</g>
</g>
<g>
	<polygon class="st0" points="54.2,43.1 53.2,37.6 51.8,37.8 50.8,43.2 36.6,43.2 45.1,6.8 59.6,6.8 68.2,43.2 	"/>
	<g>
		<polygon class="st1" points="52,40.9 51,35.5 49.6,35.6 48.6,41 34.4,41 42.8,4.6 57.3,4.6 66.1,41 		"/>
		<path class="st2" d="M37.5,38.5l7.3-31.4h10.6l7.5,31.4L54,38.4l-1.1-5.7l-5.5,0.6l-1,5.2H37.5z M51.8,27.3l-1.9-10.9l-1.8,11
			L51.8,27.3z"/>
		<path class="st3" d="M55.5,7.1H44.8l-7.3,31.4L46.7,9L55.5,7.1z M54.1,38.4h1.5L53,32.7L54.1,38.4z M49.8,16.4l1.9,10.9h-3.7
			l5.6,1.8L49.8,16.4z"/>
	</g>
</g>
<g>
	<polygon class="st0" points="90.2,49 83.8,7.2 99,7.5 99.7,14 100.8,7.2 116.6,7.2 106.8,49 	"/>
	<g>
		<polygon class="st1" points="87.7,46.5 81.3,4.7 96.5,5 97.2,11.5 98.3,4.7 114.1,4.7 104.3,46.5 		"/>
		<path class="st2" d="M94,7.8l2.8,25.7l4-25.9h9.8l-8.6,36H90.2l-5.6-36L94,7.8z"/>
		<path class="st3" d="M100.7,7.6l-2.9,18.6l5-16.5l7.6-2.1C110.4,7.6,100.7,7.6,100.7,7.6z M94,7.8l-9.3-0.2l5.5,36.1l-3.4-34
			L94,7.8z"/>
	</g>
</g>
<g>
	<path class="st0" d="M138.2,43.6c-0.2-0.5-0.8-1.9-1.6-4l0.1,5.8l-14.9-0.1l-0.3-42.7h15.2l0.6,1.9V2.6h15.9V45l-14.3,0.7
		L138.2,43.6z"/>
	<g>
		<path class="st1" d="M135.7,41c-0.2-0.5-0.8-1.9-1.6-4l0.1,5.8l-14.9-0.1L118.9,0h15.2l0.6,1.9V0h15.9v42.4l-14.3,0.7L135.7,41z"
			/>
		<path class="st2" d="M121.9,2.9H132l5.7,19.8V2.9h10v36.7l-9.2,0.5c0-0.1-7.7-18.6-7.7-18.6l0.4,18.4l-9-0.1L121.9,2.9z"/>
		<path class="st3" d="M147.6,2.9h-10V22l2.2-16.9L147.6,2.9z M133,27L133,27c2.3,5.5,5.4,13.1,5.4,13.2l1.3-0.1
			C137.7,35.1,133,27,133,27z M131.9,2.9h-10.1l0.3,36.9L124,5.1L131.9,2.9z"/>
	</g>
</g>
<g>
	<polygon class="st0" points="30.7,42.1 30.4,44.3 17.9,44.1 17.9,44.3 2.5,44.3 10.9,2.5 24.3,2.5 24.5,3.6 24.6,2.5 37.5,2.5 
		46.7,44.2 31.1,44.5 	"/>
	<g>
		<polygon class="st1" points="28.2,39.6 27.9,41.8 15.4,41.6 15.3,41.8 0,41.8 8.4,0 21.8,0 22,1.1 22.1,0 35,0 44.2,41.7 28.6,42 
					"/>
		<path class="st2" d="M3.5,38.9l7.3-36.1h8.6l2.7,17.5l2.5-17.5h8.1l8,36.1L31,39.1l-3.4-17.3L25.4,39l-7.6-0.2l-2.1-18.1
			l-2.8,18.2H3.5z"/>
		<path class="st3" d="M32.7,2.9h-8.1L22.1,20l4.6-15L32.7,2.9z M29,29.2l1.9,9.9h1.7L29,29.2z M10.7,2.9l-7.2,36L12.9,5l6.5-2.1
			H10.7z M16.7,29.8l1,9h1.9L16.7,29.8z"/>
	</g>
</g>
<g>
	<polygon class="st0" points="108.2,47 108.2,9 122.2,9 121.4,47 	"/>
	<g>
		<polygon class="st1" points="105.9,44.7 105.9,6.7 119.9,6.7 119.1,44.7 		"/>
		<path class="st2" d="M108.5,9.3h8.8l-0.7,32.8h-8L108.5,9.3z"/>
		<path class="st3" d="M117.3,9.3h-8.8l0.1,32.8l1.9-30.8L117.3,9.3z"/>
	</g>
</g>
<g class="st4">
	<path class="st5" d="M27,20c0.8,0.7,0.8,2.2,0.1,3.1c-0.7,0.9-1.8,1-2.6,0.4c-0.8-0.6-1-1.8-0.3-2.8C24.9,19.6,26.2,19.3,27,20z"/>
	<path class="st5" d="M22,15.1c0.3-0.5,1-0.6,1.4-0.3c0.4,0.4,0.3,1.1-0.1,1.5c-0.4,0.4-0.9,0.5-1.3,0.1
		C21.7,16.2,21.7,15.6,22,15.1z"/>
	<path class="st5" d="M27.7,15.7c0.4-0.6,1.3-0.8,1.7-0.3c0.5,0.4,0.4,1.3-0.1,1.9c-0.5,0.5-1.1,0.6-1.6,0.2
		C27.4,17,27.3,16.3,27.7,15.7z"/>
	<path class="st5" d="M33.9,15c-0.2-0.2-0.3-0.6,0-0.9c0.2-0.3,0.7-0.4,0.9-0.1c0.3,0.2,0.2,0.7,0,0.9C34.5,15.3,34.2,15.3,33.9,15z
		"/>
	<path class="st5" d="M34.2,12.4c-0.1-0.1-0.2-0.4,0-0.5c0.1-0.2,0.4-0.2,0.6-0.1c0.2,0.1,0.1,0.4,0,0.6
		C34.6,12.5,34.4,12.5,34.2,12.4z"/>
	<path class="st5" d="M31.7,19.8c0.5-0.7,1.5-0.9,2.1-0.4s0.5,1.5,0,2.1s-1.3,0.7-1.9,0.3C31.4,21.3,31.2,20.4,31.7,19.8z"/>
</g>
<g class="st4">
	<path class="st5" d="M91.1,16.4c0.8,0.7,0.8,2.2,0.1,3.1c-0.7,0.9-1.8,1-2.6,0.4c-0.8-0.6-1-1.8-0.3-2.8
		C89,16.1,90.3,15.7,91.1,16.4z"/>
	<path class="st5" d="M86.1,11.6c0.3-0.5,1-0.6,1.4-0.3c0.4,0.4,0.3,1.1-0.1,1.5s-0.9,0.5-1.3,0.1C85.9,12.6,85.8,12,86.1,11.6z"/>
	<path class="st5" d="M91.8,12.1c0.4-0.6,1.3-0.8,1.7-0.3c0.5,0.4,0.4,1.3-0.1,1.9c-0.5,0.5-1.1,0.6-1.6,0.2
		C91.5,13.4,91.4,12.7,91.8,12.1z"/>
	<path class="st5" d="M98,11.5c-0.2-0.2-0.3-0.6,0-0.9c0.2-0.3,0.7-0.4,0.9-0.1c0.3,0.2,0.2,0.7,0,0.9C98.6,11.7,98.3,11.7,98,11.5z
		"/>
	<path class="st5" d="M98.4,8.8c-0.1-0.1-0.2-0.4,0-0.5c0.1-0.2,0.4-0.2,0.6-0.1c0.2,0.1,0.1,0.4,0,0.6C98.7,9,98.5,9,98.4,8.8z"/>
	<path class="st5" d="M95.9,16.2c0.5-0.7,1.5-0.9,2.1-0.4s0.5,1.5,0,2.1s-1.3,0.7-1.9,0.3C95.5,17.7,95.4,16.9,95.9,16.2z"/>
</g>
<g class="st4">
	<path class="st5" d="M138.2,15.6c0.8,0.7,0.8,2.2,0.1,3.1s-1.8,1-2.6,0.4s-1-1.8-0.3-2.8C136,15.3,137.4,14.9,138.2,15.6z"/>
	<path class="st5" d="M133.2,10.8c0.3-0.5,1-0.6,1.4-0.3c0.4,0.4,0.3,1.1-0.1,1.5c-0.4,0.4-0.9,0.5-1.3,0.1
		C132.9,11.8,132.8,11.3,133.2,10.8z"/>
	<path class="st5" d="M138.9,11.3c0.4-0.6,1.3-0.8,1.7-0.3c0.5,0.4,0.4,1.3-0.1,1.9c-0.5,0.5-1.1,0.6-1.6,0.2
		C138.5,12.6,138.4,11.9,138.9,11.3z"/>
	<path class="st5" d="M145.1,10.7c-0.2-0.2-0.3-0.6,0-0.9c0.2-0.3,0.7-0.4,0.9-0.1c0.3,0.2,0.2,0.7,0,0.9
		C145.7,10.9,145.3,10.9,145.1,10.7z"/>
	<path class="st5" d="M145.4,8c-0.1-0.1-0.2-0.4,0-0.5c0.1-0.2,0.4-0.2,0.6-0.1c0.2,0.1,0.1,0.4,0,0.6C145.8,8.2,145.5,8.2,145.4,8z
		"/>
	<path class="st5" d="M142.9,15.4c0.5-0.7,1.5-0.9,2.1-0.4s0.5,1.5,0,2.1s-1.3,0.7-1.9,0.3C142.5,16.9,142.4,16.1,142.9,15.4z"/>
	<path class="st5" d="M126.5,9.4c0.5-0.7,1.5-0.9,2.1-0.4s0.5,1.5,0,2.1s-1.3,0.7-1.9,0.3C126.2,10.9,126,10.1,126.5,9.4z"/>
</g>
<g class="st4">
	<path class="st5" d="M69.9,32.2c0.3-0.5,1-0.6,1.4-0.3c0.4,0.4,0.3,1.1-0.1,1.5s-0.9,0.5-1.3,0.1C69.6,33.3,69.5,32.7,69.9,32.2z"
		/>
	<path class="st5" d="M75.6,32.7c0.4-0.6,1.3-0.8,1.7-0.3c0.5,0.4,0.4,1.3-0.1,1.9c-0.5,0.5-1.1,0.6-1.6,0.2
		C75.2,34,75.1,33.3,75.6,32.7z"/>
	<path class="st5" d="M81.8,32.1c-0.2-0.2-0.3-0.6,0-0.9c0.2-0.3,0.7-0.4,0.9-0.1c0.3,0.2,0.2,0.7,0,0.9
		C82.4,32.3,82,32.3,81.8,32.1z"/>
	<path class="st5" d="M82.1,29.5c-0.1-0.1-0.2-0.4,0-0.5c0.1-0.2,0.4-0.2,0.6-0.1s0.1,0.4,0,0.6C82.5,29.6,82.2,29.6,82.1,29.5z"/>
</g>
</svg>
